<svg enable-background="new 0 0 1164 851" height="851" viewBox="0 0 1164 851" width="1164" xmlns="http://www.w3.org/2000/svg" xmlns:xlink="http://www.w3.org/1999/xlink"><linearGradient id="a"><stop offset="0" stop-color="#fff"/><stop offset="1" stop-opacity="0"/></linearGradient><linearGradient id="b" gradientUnits="userSpaceOnUse" x1="715.2094" x2="715.2094" xlink:href="#a" y1="778.9285" y2="498.1066"/><linearGradient id="c"><stop offset="0" stop-color="#ce4928" stop-opacity="0"/><stop offset="1" stop-color="#ce4928"/></linearGradient><linearGradient id="d" gradientUnits="userSpaceOnUse" x1="248.1807" x2="248.1807" xlink:href="#c" y1="494.0271" y2="881.0477"/><linearGradient id="e" gradientUnits="userSpaceOnUse" x1="385.1316" x2="385.1316" xlink:href="#c" y1="494.0271" y2="881.0477"/><linearGradient id="f" gradientUnits="userSpaceOnUse" x1="489.9708" x2="489.9708" xlink:href="#c" y1="494.0271" y2="881.0477"/><linearGradient id="g" gradientUnits="userSpaceOnUse" x1="605.4428" x2="605.4428" xlink:href="#c" y1="494.0271" y2="881.0477"/><linearGradient id="h" gradientUnits="userSpaceOnUse" x1="714.8266" x2="714.8266" xlink:href="#c" y1="494.0271" y2="881.0477"/><linearGradient id="i" gradientUnits="userSpaceOnUse" x1="811.7683" x2="811.7683" xlink:href="#c" y1="494.0271" y2="881.0477"/><linearGradient id="j" gradientUnits="userSpaceOnUse" x1="920.1473" x2="920.1473" xlink:href="#c" y1="494.0271" y2="881.0477"/><linearGradient id="k" gradientUnits="userSpaceOnUse" x1="715.2094" x2="715.2094" xlink:href="#a" y1="2026.9285" y2="1746.1066"/><linearGradient id="l" gradientUnits="userSpaceOnUse" x1="248.1807" x2="248.1807" xlink:href="#c" y1="1742.0271" y2="2129.0479"/><linearGradient id="m" gradientUnits="userSpaceOnUse" x1="385.1316" x2="385.1316" xlink:href="#c" y1="1742.0271" y2="2129.0479"/><linearGradient id="n" gradientUnits="userSpaceOnUse" x1="489.9708" x2="489.9708" xlink:href="#c" y1="1742.0271" y2="2129.0479"/><linearGradient id="o" gradientUnits="userSpaceOnUse" x1="605.4428" x2="605.4428" xlink:href="#c" y1="1742.0271" y2="2129.0479"/><linearGradient id="p" gradientUnits="userSpaceOnUse" x1="714.8266" x2="714.8266" xlink:href="#c" y1="1742.0271" y2="2129.0479"/><linearGradient id="q" gradientUnits="userSpaceOnUse" x1="811.7683" x2="811.7683" xlink:href="#c" y1="1742.0271" y2="2129.0479"/><linearGradient id="r" gradientUnits="userSpaceOnUse" x1="920.1473" x2="920.1473" xlink:href="#c" y1="1742.0271" y2="2129.0479"/><path d="m0 0h1164v851h-1164z" fill="none"/><path d="m500.4 474.6h-308.9c-6.6 0-12-5.4-12-12v-86.8c0-6.6 5.4-12 12-12h308.9c6.6 0 12 5.4 12 12v86.8c0 6.6-5.4 12-12 12z"/><path d="m214 647s348.6-131.9 712.5 0l-42.1-135.5-576.4-20.5z"/><path d="m330.9 433.4 153.5-.2-28.6 136.3-76.7 6.2z"/><path d="m614.5 420.4h55.3l3.2 20.6-29.2 14z"/><path d="m673.9 433.4-4.8 130.5-54.7 13.8-81.3-8.2-38.7-149.3h132.1z"/><path d="m702.8 453.1h77.6v116.4h-77.6z"/><path d="m926.5 448c-8.3 8.2 37.5-35.7 8.6-18s-12.7 14.8-12.7 14.8l10.9 19.3-4.6 32.5-17.1 10.9 28.7 49.2 16.8 53.5-15.4 9.4-63.7-4.7-47.6-9.9-31.3-13.4-11.1-171.2h108.5c0 .1 40.3 17.4 30 27.6z"/><path d="m970.2 482v-29.3c0-19.8-11.6-32.1-30.4-32.1h-57.7c-9.4 0-16.9 2.7-22.3 8.2-5.3 5.3-7.9 12.6-7.8 21.6l.5 40.3c.1 9.3 3.5 17.4 10.1 24.2 12.2 12.3 21.1 21.6 30.5 32.2-8.9-1.8-14.5-2.9-24.5-4.8l-15.6-2.9.4 34.8-.3-.1c-15.1-3.5-24.2-5.4-36.5-7.8l-2.2-145.7h-49-.6-5.1-99l.1 12.9c-1.8-3.2-4.2-5.5-6.3-7.1-5.3-3.9-12.1-5.8-20.8-5.8h-57.7c-8.7 0-15.5 1.9-20.7 5.8-4.4 3.2-9.5 9.4-9.6 20.1v31.2c0 6.2 2 15.1 11.9 21.9l1.9 1.3c7.6 5.2 13.9 9.6 19.9 13.7-6.9 0-12.3 0-20.9 0l-12.9.1v19.3c-9.4-35.9-18.2-70.2-26.7-103.8l-2.5-9.8h-22.1l-3.1-14.9-3.4 14.9h-21.6l-2.6 9.6c-10.1 37.8-20.5 77.1-31.6 119.7l-8.8 1c-15.3 1.8-24.9 3-36.4 4.7l.3-22.6c10.2-1 18.1-1.7 31.5-2.7l11.8-.9.6-45.4-14 .8c-12.4.7-20.2 1.3-29.2 1.9l.3-19.4c12.4-.3 21.8-.5 37.6-.8l12.6-.2.6-45.6h-148.1l-1.7 11c-1.4 8.6-2.7 17.3-4.1 26-1.2-8.6-2.4-17.2-3.7-25.8l-1.6-11.2h-45.9l-1.7 11c-1.5 9.3-2.9 18.7-4.3 28.2-1.1-9.2-2.2-18.4-3.3-27.7l-1.4-11.5h-26.6l-77.4-.1 52.9 32.3c8.7 65.3 16.9 125.5 24.9 183.8l2.2 15.7 15-5.2c10.9-3.8 16.2-5.6 27.2-9.1l7.7-2.4 1.2-8c1.9-12.1 3.8-24.4 5.7-36.6 1.2 7.7 2.6 16.2 4.2 26.1l2.3 14.4 14-4c11-3.1 16.4-4.5 27.4-7.3l8.2-2.1 1.4-8.4c6.7-39.9 13.2-77.7 19.7-114.5l-1.8 118 15.9-3.3c31.5-6.6 47-9.3 79-13.5l6.3-.8 6.3-.8c11.4-1.4 16.9-2 28.3-3.1l9.4-.9 2-9.3c1.7-7.6 2.8-12.6 4-18.5 5.4-.4 10-.6 15.3-.9 1 4.9 2 9.4 3.4 15.8l2.3 10.8 11.1-.6c11.5-.6 17.1-.8 28.5-1.1l16.5-.4-.9-3.5c4.3 2.2 9.9 3.6 17.4 3.6 23.3.1 34.6.5 57.9 1.9 1.2.1 2.3.1 3.4.1 9 0 15.8-2.3 20.8-7.1 1.4-1.4 3-3.2 4.3-5.7l.2 14.7 11.6 1.1c32 3.1 47.6 5.2 79.3 10.6l9.7 1.7 9.7 1.9c30.1 5.7 44.6 9 74.2 16.9l16.5 4.4-.1-4.4c4.3 4.1 9.8 7.3 16.5 9.3 22.6 6.8 33.5 10.3 55.7 18.3 4.1 1.5 8 2.2 11.6 2.2 4.7 0 9-1.3 12.6-3.8 6.6-4.7 10-12.6 10-23.7v-50.3c0-10.1-3-19.1-8.9-26.5-13.2-16.6-22.6-27.9-32.2-38.6 5.5.6 9.7 1.1 14.1 1.5l5.6.6c2.1.2 4.4.5 7 .8l10 1.2 4.5.5 52.1 5.9zm-54.4 13.4c-2.8-2.9-5.7-6-8.8-9.2l-.1-15.4c3 .1 5.8.2 8.9.4zm-8.2 68.5c2.7 3.2 5.5 6.7 8.5 10.4l.1 17.3c-2.7-.8-5.4-1.5-8.4-2.4zm-150.2-7.9c-16.7-2.5-26.7-3.8-40.3-5.4l-.3-21c9 .7 16.7 1.3 29 2.4l14.4 1.3-.7-46.5-11.9-.8c-13.3-.9-21.3-1.5-31.3-2l-.2-17.8c11.9.2 21.2.4 36.7.8l7.8.2 1.4 89.5zm-156.9-91.9h9.2l.1 11.9c-2.9-2-5.9-4.1-9.2-6.4zm9.6 79.5c-3.2-.1-6.2-.2-9.5-.3v-14.1c3 2.1 6.1 4.4 9.5 6.8zm43.2-36.5c-8.4-6.2-15.4-11.2-22.2-16.1 6.5.1 11.8.2 20.1.4l10.3.2.3 25c-2-3.5-4.8-6.7-8.5-9.5z"/><path d="m210.1 408.1c0 2-.9 3.1-2.8 3.1h-9.2c-1.8 0-2.8-1-2.8-3.1v-8h4.6v6.9h5.6v-6.6l-9.2-9.5c-.7-.7-1-1.6-1-2.7v-7.5c0-2.1.9-3.1 2.8-3.1h9.2c1.8 0 2.8 1 2.8 3.1v7.5h-4.6v-6.3h-5.5v6.1l9.2 9.5c.7.7 1 1.6 1 2.7v7.9z" fill="#fff"/><path d="m229.4 382h-5v29.2h-4.6v-29.2h-5v-4.4h14.6z" fill="#fff"/><path d="m249.8 411.2h-4.8l-5-15.6v-3h4.5v-10.7h-5.8v29.3h-4.6v-33.6h12.1c1.8 0 2.8 1 2.8 3.1v12.2c0 1.4-.4 2.3-1.3 2.8-.5.2-1.5.3-3 .3z" fill="#fff"/><path d="m267.7 411.2h-12.7v-33.6h12.6v4.4h-8v9.8h6.9v4.4h-6.9v10.5h8.1z" fill="#fff"/><path d="m288.7 411.2h-4.5l-.9-6.4h-5.7l-.9 6.4h-4.5v-.1l5.9-33.6h4.8zm-6.1-10.7-2.2-15.2-2.2 15.2z" fill="#fff"/><path d="m312.1 411.2h-4.4v-16.6c0-.9.1-2.1.3-3.7l-3.9 17.2h-2.3l-4-17.2c.2 1.6.3 2.8.3 3.7v16.6h-4.4v-33.6h4.3l4.8 18.6c.1.2.1.7.1 1.5 0-.4 0-.9.1-1.5l4.8-18.6h4.3z" fill="#fff"/><path d="m755.8 589.5c-.1-8.3-.2-12.4-.3-20.7-20.4-3.1-30.7-4.4-51.2-6.6-.2-18.6-.4-28-.6-46.6 17.3 1.2 26 1.9 43.3 3.5-.1-3.7-.1-6.5-.1-9.3-23.3-3-47.4-5.4-72.2-7.2.3 25.4.6 50.7.8 76.1 32.2 3.2 48.3 5.3 80.3 10.8z" fill="url(#b)"/><path d="m441.4 186.3s21.2-12.6 54.1-6.3c0 0 20.5.5 34.3-1 13.8-1.6 30-16.5 68.2 10.1s125.7 75.9 238.7 116.4c0 0 18.8 4.9 79.6-10.3 60.7-15.2 18.9 57.3 18.9 57.3s-23.1 45.6-50.8 39.7-27.7-5.9-27.7-5.9-102.1 63.9-199-28.5c0 0-12 14.4-19.9 13.4s-52.9-7.9-93.2-26.7c0 0-9.4 9.4-19.9 2.1s-26.2-9.4-13.1 13.6 46.4 62.3 46.4 62.3-219.3 23.5-243.9-55c0 0-3.1-8.4 0-24.6 0 0-18.2.1-23.7 15 0 0-15-13.7-6.6-30.1 0 0-8.4-.1-12 13.2 0 0-14.9-37.4 53.5-86.1 0 0-15.3-1.6-29.5 11 0 0 23.6-63.3 145.6-79.6z"/><path d="m338.9 276.5s-39.3 20.1-46.5 64.5c0 0 10.1-35.8 67.5-48.7 0 0-30.1 12.1-47 35.4 0 0 14.3-17.4 36.8-22.3 0 0-16.4 13.2-23.5 35.5 0 0 13.5-31.1 49.6-37 0 0-37.3 19.1-38.9 53.8 0 0-17.5 59.5 186.7 51.5 0 0-85.2-93.1 5.1-91.4l11.5-67-57.7-15.3z" fill="#e75725"/><path d="m540.2 251-57.7-15.3-143.6 40.9s-39.3 20.1-46.5 64.5c0 0 10.1-35.8 67.5-48.7 0 0-30.1 12.1-47 35.4 0 0 14.3-17.4 36.8-22.3 0 0-16.4 13.2-23.5 35.5 0 0 12.8-29.6 47-35.5 0 0-34.7 17.7-36.3 52.4-.1 0 15.9-74.8 203.3-106.9z" fill="#ce4928"/><path d="m466.9 409.8c16.9.5 36.1.4 57.7-.4 0 0-85.2-93.1 5.1-91.4 0 0-92-29.5-62.8 91.8z" fill="#ce4928"/><path d="m529.7 214.2s3-32.1 35.1-27.9c32.1 4.3 25.2 42-2.6 52.1 0 0-14.4-2.6-14.1-11.5s-7.5-2-7.5-2-11.2 1.1-10.9-10.7z" fill="#e75725"/><path d="m562.2 238.5c27.9-10.2 34.8-47.9 2.6-52.1 0-.1 42.8 13.2-2.6 52.1z" fill="#ce4928"/><path d="m667.3 329-10.2-7.7-18.4-5.4-28.5-35.8-63.4-18.9-14.3 4.6 32.2 68.9s32.8 23.1 67.5 23 16-5.4 26.5-16.8c10.5-11.2 8.6-11.9 8.6-11.9z" fill="#fff"/><path d="m544 269.4c48.8 69.3 104.8 80 104.8 80s3.8-2 9.9-8.4c5.8-6-15-32.3-15-32.3l-60.4-30.1-43.1-22.4s-31.4-36.7 3.8 13.2z" fill="#f1f2f2"/><path d="m449.7 211.5s-109.7-1.9-159.3 109.3c0 0 17-22.4 79.7-43.4 0 0-44.5 25.3-50.3 55 0 0 69.5-66.6 156.8-57.6 0 0 4-1.4 2.2 5.1s.7 24.3 6.2 31.1c0 0 0-21.4 10.5-28.6 0 0-2.9 16.7 5.8 34 0 0-3.6-9.1 4-13 7.6-4 10.9 9.4 10.9 9.4s4.3 17.6 12.7 21.9c0 0-5.1-11.7 0-16.8 0 0 57.9 41.6 103.6 39.8 0 0-78.2-6.9-87.3-84.4 0 0-5.2-13 8.6-2.5s33.8 29.7 78.6 44.9 186.8 33.7 188.3 33.7c1.4 0 20.3-5.4 20.3-5.4l6.1-23.2s-64.1-7.2-221.6-101c-.2.1-92.2-60.8-175.8-8.3z" fill="#60100d"/><path d="m454.4 217.5s-114.4-7.1-164 104.1c0 0 35.8-82.3 164-93.6s3.8-.3 3.8-.3 20.7 3.4-7.1-10.2" fill="#661617"/><path d="m845.5 320.4s-64.1-7.2-221.6-101c0 0-92-60.8-175.6-8.3 0 0 91.2-31.2 185.6 24.1s166.5 81.3 211.6 85.2z" fill="#661617"/><path d="m455.5 199.6s-62.5-2.5-120.1 46.2c0 0 70.2-41.9 119.1-23.1s1-23.1 1-23.1z" fill="#661617"/><path d="m498.1 192.6s-62.8-2.8-120.4 45.9c0 0 70.2-41.9 119.1-23.1s1.3-22.8 1.3-22.8z" fill="#60100d"/><path d="m504.7 217.4s-3-32.1-35.1-27.9c-32.1 4.3-25.2 42 2.6 52.1 0 0 14.4-2.6 14.1-11.5s7.5-2 7.5-2 11.2 1.1 10.9-10.7z" fill="#e75725"/><path d="m473.5 205.1c19.1 5.9 20.3 22.9 20.3 22.9s-7.9-6.9-7.5 2c0 0 1-15.6-12.8-24.9z" fill="#ce4928"/><path d="m469.6 189.5c32.1-4.3 35.1 27.9 35.1 27.9.3 11.8-10.8 10.8-10.8 10.8s16.6-35.1-24.3-38.7z" fill="#ce4928"/><path d="m632.2 315.8s47.8 5.4 75.7 0 56.5-4.3 83.6 12c27.2 16.3 35.8 13.2 35.8 13.2l26.1 28s-95.9 78.6-221.2-53.2z" fill="#e75725"/><path d="m827.4 341 26.1 28s-96 78.6-221.2-53.2c-.1 0 112.1 103.8 195.1 25.2z" fill="#ce4928"/><path d="m829.4 320.3s50.9-7.5 78.7-13.4c27.9-5.9 29.5 8 25.2 18.2s-18 50.4-51.1 51.4c-33 1.1-62-34.6-62-35.5.1-.9-10.9-17.6 9.2-20.7z"/><ellipse cx="887.8" cy="327.8" fill="#fff" rx="20.9" ry="7"/><path d="m478.7 280s-21.2-6-45.5 8.8c0 0 4.3-8.1 46.5-21.7 42.1-13.6-1 12.9-1 12.9z" fill="#60100d"/><ellipse cx="587.5" cy="257.6" fill="#661617" rx="35.8" ry="16.5" transform="matrix(.922 .3871 -.3871 .922 145.557 -207.3709)"/><ellipse cx="587.5" cy="257.6" fill="#eaeaea" rx="27.3" ry="12.6" transform="matrix(.922 .3871 -.3871 .922 145.557 -207.3709)"/><ellipse cx="588.7" cy="254.7" fill="#fff" rx="20.2" ry="12" transform="matrix(.922 .3871 -.3871 .922 144.5373 -208.063)"/><circle cx="587.5" cy="249.3" r="11.5"/><path d="m550.7 241.6s23.4-7.8 46.1 11.9 28.6 23.1 50 25c21.3 1.8 19.5-15.4 19.5-15.4s-94.5-53.1-115.6-21.5z" fill="#60100d"/><ellipse cx="579.9" cy="255.3" fill="#fff" rx="2.9" ry="5.9" transform="matrix(.866 -.5 .5 .866 -49.9472 324.1578)"/><path d="m207.7 635c-8.1-59.2-16.5-121-25.6-189l-23.9-14.6 38 .1h17l.2 1.8c4.5 37.1 8.9 73.6 13.2 108.7 5.2-36.2 10.7-72.7 16.3-108.7l.3-1.7h27l.2 1.7c4.7 33.6 9.5 66.9 14.3 99.2 4.9-32.9 10-66.3 15.2-99.3l.3-1.7h33.1l-.4 2.4c-10.1 55.3-20.1 112.3-30.4 174l-.2 1.3-1.3.3c-11.2 2.8-16.6 4.3-27.7 7.4l-2.2.6-.4-2.2c-6-37-9.1-56.6-14.9-94.2-5.8 34.7-11.4 70-16.7 104.9l-.2 1.2-1.2.4c-11.1 3.5-16.5 5.3-27.5 9.2l-2.3.8z"/><path d="m330.9 433.4c-10.6 57.9-20.7 116-30.4 174-11.1 2.8-16.7 4.3-27.8 7.4-6.3-39.2-9.5-59.3-15.9-100.6-.1-3.8-.4-9.4-.8-16.9 0 3.8-.4 9.5-1.1 17.2-6.2 37-12.1 74-17.7 111-11 3.5-16.5 5.4-27.5 9.2-8.7-63.3-17.2-126.6-25.7-189.9l-18.6-11.4h30.9 15.3c4.6 38.7 9.3 77.4 14.1 116.1.2 4 .5 9.9.9 17.7.1-4 .5-10 1.2-18.1 5.5-38.6 11.3-77.2 17.3-115.7h23.5c5 35.3 10.1 70.6 15.2 105.8.2 3.6.5 9 .9 16.1.1-3.7.5-9.1 1.2-16.4 5.2-35.2 10.6-70.4 16.1-105.5zm-179.7-4 12.2 7.4 17 10.4c9 67.5 17.3 129.1 25.4 188.1l.7 4.8 4.6-1.6c11-3.8 16.4-5.6 27.4-9.1l2.4-.8.4-2.5c4.7-30.8 9.6-61.8 14.7-92.5 4.7 30 7.7 49.1 13 81.9l.7 4.4 4.3-1.2c11.1-3.1 16.5-4.6 27.7-7.4l2.5-.6.4-2.6c10.3-61.7 20.3-118.7 30.4-174l.9-4.7h-4.8-29-3.4l-.5 3.4c-4.5 28.5-8.9 57.3-13.2 85.9-4.1-28.1-8.2-56.9-12.3-85.8l-.5-3.4h-3.5-23.5-3.4l-.5 3.4c-4.8 31.1-9.6 62.6-14.1 93.9-3.7-30.5-7.5-62-11.4-93.8l-.4-3.5h-3.5-15.3-30.9z" fill="#fff"/><path d="m345 431.4h82.8l-.3 23.8h-1.9c-19.5.4-29.3.6-48.2 1l-.6 42c15.9-1.2 24.4-1.8 41.1-2.8l2.2-.1-.3 23.6-1.8.1c-16.8 1.3-25.3 2.1-41.5 3.7l-.7 45.4c19-3 29-4.3 48.9-6.7l2.3-.3-.3 23.8-1.7.2c-32.3 4.3-47.9 7-79.8 13.7l-2.4.5z"/><path d="m425.7 433.4c-.1 7.9-.2 11.9-.3 19.8-20.1.4-30.1.6-50.1 1.1-.3 18.5-.4 27.7-.7 46.1 17.3-1.3 25.9-1.9 43.2-3-.1 7.8-.2 11.8-.3 19.6-17.3 1.4-26 2.1-43.3 3.9-.3 19.8-.5 29.7-.8 49.6 20.4-3.2 30.6-4.6 51.1-7-.1 7.9-.2 11.9-.3 19.8-32.1 4.3-48.1 7-79.9 13.7.8-54.5 1.7-109.1 2.5-163.6zm4.1-4h-4.1c-31.5 0-47.3 0-78.8 0h-3.9l-.1 3.9-1 65.5-1.5 98.2-.1 5 4.9-1c31.8-6.7 47.4-9.4 79.6-13.7l3.4-.5v-3.5l.1-5.8.2-14.1.1-4.6-4.5.5c-19 2.2-29.1 3.6-46.6 6.3l.6-41.3c15-1.5 23.5-2.3 39.6-3.5l3.6-.3.1-3.6.2-13.8.1-5.7.1-4.3-4.3.3c-15.9 1-24.4 1.5-38.9 2.6l.6-37.9c17.6-.4 27.4-.6 46.3-1l3.9-.1.1-3.9.1-10.3.1-9.6z" fill="#fff"/><path d="m435.2 581.1.1-.2c14-53.7 26.7-102.1 39-148.2l.4-1.5h33.2l.4 1.5c11.3 44.9 23.2 91 36.4 140.8l.6 2.4-2.5.1c-11.6.3-17.2.5-28.8 1.1l-1.7.1-.4-1.7c-2.2-10.1-3.3-15.4-5.3-25-13 .6-20 1-33.1 2-2.2 10.2-3.5 15.8-5.8 26.5l-.3 1.4-1.5.1c-11.5 1.1-17.1 1.7-28.6 3.1l-2.3.3zm55.5-105.3c-4.4 19.6-7.3 32.3-12.2 53.8 8.9-.5 14.3-.8 23.3-1.2-4.6-21.3-7.2-33.6-11.1-52.6z"/><path d="m506.3 433.2c11.8 47 24 93.9 36.4 140.8-11.6.3-17.3.5-28.9 1.1-2.3-10.6-3.4-16-5.7-26.6-14.5.7-21.8 1.1-36.3 2.2-2.4 11.2-3.7 16.8-6.1 28-11.5 1.1-17.2 1.7-28.6 3.1 0-.2 0-.2 0-.4 12.8-49.4 25.8-98.8 39-148.1 12.2-.1 18.2-.1 30.2-.1m-30.3 98.6c11.3-.7 17-1 28.3-1.4-5.5-25.4-8.2-38.2-13.5-64-5.9 26-8.9 39-14.8 65.4m33.5-102.6h-3.1-30.1-3.1l-.8 3c-12.3 46-25.1 94.5-39 148.2l-.1.5v.5.4l-.1 4.6 4.6-.6c11.5-1.4 17-2 28.5-3.1l2.9-.3.6-2.9c2.2-10.2 3.4-15.8 5.5-25.1 11.5-.8 18.4-1.2 29.8-1.8 1.8 8.6 2.9 13.8 5 23.3l.7 3.3 3.4-.2c11.6-.6 17.2-.8 28.8-1.1l5.1-.1-1.3-4.9c-13.2-49.8-25.1-95.8-36.4-140.8zm-28.5 98.3c3.8-16.8 6.4-28.3 9.6-42.3 2.9 13.7 5.2 24.8 8.8 41.4-6.8.3-11.7.5-18.4.9z" fill="#fff"/><path d="m637.3 577.7c-.9 0-1.8 0-2.7-.1-23.5-1.4-35-1.8-58.5-1.9-13-.1-19.5-5-19.5-14.8v-35.4h2c4.8 0 8.6-.1 12.3-.1 4.9 0 9.6 0 16.8.1h2l.1 28.6c12.3.2 19.2.4 31.5.9l-.2-24.7c-22.2-16-34.1-24.2-55.6-38.9l-1.6-1.1c-4.8-3.3-7.1-7.6-7.1-12.8v-31.2c0-6.8 3.4-14.9 19.3-14.9h57.7c16 0 19.4 8.2 19.5 15l.3 34.1h-2.1c-11.6-.3-17.3-.4-28.8-.6h-2l-.2-26.7c-12.1-.1-19-.1-31.1-.1v22.3c23.2 16 34.7 24 57.2 40.6 4.7 3.5 7.2 8 7.2 13.5l.3 34.2c0 4.1-1.1 7.4-3.5 9.7-2.6 2.9-7 4.3-13.3 4.3z"/><path d="m576 433.4h57.7c11.6 0 17.4 4.3 17.5 13 .1 12.8.2 19.2.3 32.1-11.5-.3-17.3-.4-28.8-.6-.1-10.7-.1-16-.2-26.7-14-.1-21.1-.1-35.1-.1 0 10.2 0 15.2.1 25.4 23.1 16 34.8 24 58.1 41.1 4.2 3.1 6.4 7.1 6.4 11.9.1 13.7.2 20.5.3 34.2.1 8.1-4.9 12-14.9 12-.8 0-1.7 0-2.6-.1-23.4-1.4-35.2-1.8-58.6-1.9-11.7-.1-17.6-4.2-17.5-12.8 0-13.4 0-20.1 0-33.5 4.8 0 8.6-.1 12.2-.1 5.1 0 9.9 0 16.7.1 0 11.5 0 17.2.1 28.6 14.2.2 21.3.4 35.5 1-.1-11.1-.1-16.7-.2-27.8-23.3-16.8-34.9-24.8-58.1-40.7-4.2-2.9-6.3-6.6-6.3-11.2 0-12.5 0-18.7 0-31.2.2-8.4 5.9-12.7 17.4-12.7m0-4v4-4c-18.5 0-21.3 10.6-21.3 16.9v30 1.2c0 5.8 2.8 10.8 8 14.5l1.7 1.2c21.1 14.5 33 22.7 54.6 38.3l.1 11.8.1 9.7c-10.4-.4-17-.6-27.5-.8v-22.8-1.9-3.9h-3.9c-7.2-.1-11.9-.1-16.8-.1-3.5 0-7.1 0-12.3.1h-4v4 29.9 3.5c0 6.2 2.8 16.7 21.5 16.8 23.5.1 35 .5 58.4 1.9 1 .1 1.9.1 2.8.1 6.8 0 11.7-1.6 14.9-4.9 2.7-2.7 4.1-6.5 4-11.2l-.2-17.1-.2-17.1c-.1-6.1-2.8-11.3-8-15.1-22.3-16.4-33.8-24.4-56.4-40v-19.3c10.3 0 16.8.1 27.1.1l.1 22.7v3.9l3.9.1c11.6.2 17.2.3 28.8.6l4.1.1v-4.1l-.1-16-.1-16.1c-.1-6.3-2.9-17-21.5-17z" fill="#fff"/><path d="m755.4 591.5c-32-5.5-47.7-7.6-80.1-10.7l-1.8-.2-1.6-149.2h82.7l.4 24.7h-2.1c-19.4-.4-29.3-.6-48.1-1l.5 39.5c16.2.9 24.7 1.4 41.4 2.6l1.8.1.4 24.1-2.2-.2c-16.6-1.5-25.1-2.2-41.1-3.3l.6 42.7c19.5 2.1 29.6 3.4 49.5 6.4l1.7.3.4 24.8z"/><path d="m673.9 433.4h78.8c.1 8.3.2 12.4.3 20.6-20.1-.5-30.1-.7-50.2-1 .2 17.4.3 26 .6 43.4 17.3.9 26 1.4 43.3 2.7.1 8 .2 12.1.3 20.1-17.3-1.6-26-2.3-43.3-3.5.2 18.6.4 28 .6 46.6 20.5 2.2 30.8 3.5 51.2 6.6.1 8.3.2 12.4.3 20.7-32-5.5-48-7.6-80.3-10.8-.5-48.5-1.1-96.9-1.6-145.4m-4-4v4l1.6 145.4v3.6l3.6.3c32.3 3.1 48 5.2 80 10.7l4.8.8-.1-4.8-.3-20.7-.1-3.4-3.4-.5c-19.4-2.9-29.4-4.2-47.8-6.2l-.3-19.8-.2-18.9c14.6 1 23.1 1.7 38.9 3.2l4.4.4-.1-4.4-.1-9.8-.2-10.3-.1-3.7-3.7-.3c-16.1-1.1-24.6-1.7-39.6-2.5l-.5-35.5c17.5.3 27.3.5 46 .9l4.2.1.1-4v-1.3l-.3-19.3-.1-3.9h-3.9c-31.5 0-47.3 0-78.8 0z" fill="#fff"/><path d="m850 612.1c-29.9-7.9-44.6-11.3-75-17l-1.6-.3-2.4-163.4h32.7l2.1 143.8c17.7 3.4 26.9 5.3 44.9 9.4l1.5.4.4 27.8z"/><path d="m773 433.4h28.7c.7 47.8 1.4 95.6 2.1 143.4 18.6 3.5 27.9 5.5 46.5 9.7.1 9.4.2 14.2.3 23.6-29.9-7.9-44.9-11.3-75.1-17.1-.9-53.1-1.7-106.3-2.5-159.6m-4.1-4 .1 4.1.1 9.1 2.3 150.6v3.3l3.2.6c30.3 5.8 45 9.1 74.8 17l5.1 1.3-.1-5.3-.2-12.7-.1-10.9v-3.1l-3.1-.7c-17.6-4-26.7-6-43.4-9.1l-2.1-140.2-.1-3.9h-3.9-28.7z" fill="#fff"/><path d="m947.5 641.6c-2.3 0-4.9-.5-7.9-1.6-22.4-8-33.5-11.7-56.3-18.5-12.2-3.7-18.5-11.5-18.6-23.4l-.5-45.6 2.4.5c11.4 2.2 17 3.3 28.4 5.6l1.6.3.3 38.7c12.1 3.3 18.7 5.2 30.4 8.7l-.2-36c-22.8-28.2-34.3-40.7-56.7-63.3-4.5-4.7-6.9-10.2-7-16.5l-.5-40.3c-.1-6 1.5-10.6 4.6-13.8 3.2-3.3 8.1-4.9 14.5-4.9h57.7c12.7 0 19.4 7.3 19.4 21.1v34.9l23.3 17.1-23.3-2.6-2.2-.2c-2.8-.3-5.3-.6-7.6-.9l-4.1-.5c-5.1-.6-9.9-1.1-16.6-1.8l-1.8-.2-.2-37.7c-12.1-.5-18.9-.8-30.9-1.3l.3 31.4c22.2 22.7 33.7 35.4 56.6 64.4 4.4 5.5 6.6 12.1 6.6 19.7v50.3c0 13.5-6.3 16.4-11.7 16.4z"/><path d="m882.1 433.5h57.7c11.6 0 17.4 6.4 17.4 19.1v35.9l18.1 13.3-18.1-2.1c-2.8-.3-5.3-.6-7.6-.9l-4.1-.5c-5.1-.6-9.9-1.1-16.6-1.8-.1-15.1-.1-22.7-.2-37.9-14-.6-21-.9-34.9-1.4.1 13.7.2 20.6.3 34.3 23 23.6 34.5 36.3 57.1 64.8 4.1 5.1 6.1 11.3 6.1 18.4v50.3c0 9.7-3.2 14.5-9.7 14.5-2.1 0-4.5-.5-7.2-1.5-22.4-8-33.7-11.7-56.4-18.5-11.3-3.4-17.1-10.5-17.2-21.5-.2-17.3-.3-25.9-.5-43.2 11.4 2.1 17 3.3 28.4 5.6.1 15.5.2 23.2.3 38.6 13.8 3.7 20.7 5.7 34.4 9.8-.1-15.8-.1-23.6-.2-39.4-22.7-28.1-34.2-40.7-57.2-64-4.2-4.3-6.3-9.3-6.4-15.2-.2-16.1-.3-24.2-.5-40.3-.2-10.9 5.5-16.4 17-16.4m0-4c-6.9 0-12.3 1.9-15.9 5.5-3.5 3.6-5.3 8.7-5.2 15.2l.1 12.3.3 28c.1 6.9 2.6 12.9 7.5 17.9 22.2 22.5 33.6 34.9 56.1 62.6l.1 18.8.1 13.8c-9.7-2.9-16.1-4.7-26.4-7.5l-.1-16.3-.2-19.3v-3.2l-3.2-.7c-11.4-2.4-17-3.5-28.4-5.6l-4.8-.9.1 4.9.3 24.1.2 19.1c.1 12.7 7.1 21.4 20.1 25.3 22.8 6.8 33.8 10.4 56.2 18.5 3.2 1.1 6 1.7 8.5 1.7 5.1 0 13.7-2.4 13.7-18.5v-50.3c0-8-2.4-15.1-7-20.9-22.8-28.8-34.3-41.5-56.2-63.9l-.2-22.8v-5.6c10.2.4 16.7.7 26.9 1.1l.1 15.1.1 18.9v3.6l3.6.4c7.1.8 11.8 1.3 16.6 1.8l4.1.5c2.3.3 4.8.5 7.6.9l4.5.5 13.6 1.5 14.9 1.7-12.1-8.9-16.4-12.1v-33.9c0-14.9-7.6-23.1-21.4-23.1z" fill="#fff"/><path d="m285.8 539c-.7 7.3-1 12.8-1.2 16.4-.4-7.1-.7-12.5-.9-16.1-5.2-35.3-10.3-70.5-15.2-105.8-9.4 0-14.1 0-23.5 0-6 38.5-11.8 77.1-17.3 115.7-.7 8-1.1 14.1-1.2 18.1-.4-7.8-.6-13.7-.9-17.7-4.8-38.7-9.4-77.4-14.1-116.1-6.1 0-10.6 0-15.3 0h-30.9l18.6 11.4c8.5 63.3 17 126.6 25.7 189.9 11-3.8 16.5-5.7 27.5-9.2 5.7-37 11.6-74 17.7-111 .7-7.6 1.1-13.3 1.1-17.2.4 7.5.7 13.1.8 16.9 6.4 41.3 9.6 61.4 15.9 100.6 11.1-3.1 16.6-4.6 27.8-7.4 9.7-58.1 19.8-116.1 30.4-174-11.6 0-17.4 0-29 0-5.4 35.2-10.8 70.4-16 105.5z" fill="url(#d)"/><path d="m344.5 597.2c31.8-6.7 47.8-9.4 79.9-13.7.1-7.9.2-11.9.3-19.8-20.5 2.4-30.7 3.8-51.1 7 .3-19.8.5-29.7.8-49.6 17.3-1.7 25.9-2.5 43.3-3.9.1-7.8.2-11.8.3-19.6-17.3 1-26 1.6-43.2 3 .3-18.5.4-27.7.7-46.1 20-.5 30.1-.7 50.1-1.1.1-7.9.2-11.9.3-19.8-31.5 0-47.3 0-78.8 0-.9 54.5-1.8 109-2.6 163.6z" fill="url(#e)"/><path d="m476.2 433.3c-13.2 49.3-26.2 98.7-39 148.1v.4c11.4-1.4 17.2-2 28.6-3.1 2.5-11.2 3.7-16.8 6.1-28 14.5-1.1 21.8-1.5 36.3-2.2 2.3 10.7 3.4 16 5.7 26.6 11.5-.6 17.3-.8 28.9-1.1-12.4-46.9-24.6-93.8-36.4-140.8-12.1.1-18.1.1-30.2.1zm-.2 98.6c5.9-26.4 8.9-39.4 14.8-65.4 5.4 25.7 8.1 38.5 13.5 64-11.4.5-17 .8-28.3 1.4z" fill="url(#f)"/><path d="m645.6 517.7c-23.3-17.1-34.9-25.2-58.1-41.1 0-10.2 0-15.2-.1-25.4 14 0 21.1.1 35.1.1.1 10.7.1 16 .2 26.7 11.5.2 17.3.3 28.8.6-.1-12.8-.2-19.2-.3-32.1-.1-8.7-5.9-13-17.5-13-23.1 0-34.6 0-57.7 0-11.5 0-17.3 4.3-17.3 12.9v31.2c0 4.5 2.1 8.3 6.3 11.2 23.1 15.9 34.7 23.8 58.1 40.7.1 11.1.1 16.7.2 27.8-14.2-.6-21.3-.8-35.5-1 0-11.5 0-17.2-.1-28.6-11.6-.1-17.4-.1-29-.1v33.5c0 8.5 5.8 12.7 17.5 12.8 23.5.1 35.2.5 58.6 1.9 11.8.7 17.6-3.2 17.5-11.9-.1-13.7-.2-20.5-.3-34.2-.1-4.9-2.2-8.9-6.4-12z" fill="url(#g)"/><path d="m704.2 562.4c-.2-18.6-.4-28-.6-46.6 17.3 1.2 26 1.9 43.3 3.5-.1-8-.2-12.1-.3-20.1-17.3-1.2-25.9-1.7-43.3-2.7-.2-17.4-.3-26-.6-43.4 20.1.3 30.1.5 50.2 1-.1-8.3-.2-12.4-.3-20.6-31.5 0-47.3 0-78.8 0 .5 48.5 1.1 96.9 1.6 145.4 32.2 3.1 48.3 5.3 80.3 10.8-.1-8.3-.2-12.4-.3-20.7-20.4-3-30.6-4.3-51.2-6.6z" fill="url(#h)"/><path d="m803.8 577c-.7-47.8-1.4-95.6-2.1-143.4-11.5 0-17.2 0-28.7 0 .8 53.2 1.6 106.5 2.4 159.7 30.2 5.8 45.3 9.2 75.1 17.1-.1-9.4-.2-14.2-.3-23.6-18.5-4.3-27.8-6.3-46.4-9.8z" fill="url(#i)"/><path d="m928.8 496.7c6.8.7 11.5 1.2 16.6 1.8l4.1.5c2.3.3 4.8.6 7.6.9l18.1 2.1-18.1-13.3c0-12.2 0-21.2 0-35.9 0-12.8-5.8-19.1-17.4-19.1-23.1 0-34.6 0-57.7 0-11.5 0-17.2 5.6-17.1 16.7.2 16.1.3 24.2.5 40.3.1 5.9 2.2 10.9 6.4 15.2 23.1 23.3 34.6 36 57.2 64 .1 15.8.1 23.6.2 39.4-13.7-4.1-20.6-6.1-34.4-9.8-.1-15.5-.2-23.2-.3-38.6-11.3-2.3-17-3.5-28.4-5.6.2 17.3.3 25.9.5 43.2.1 11 5.9 18.1 17.2 21.5 22.7 6.8 34 10.5 56.4 18.5 11.3 4 16.9-.2 16.9-13.1 0-20.1 0-30.2 0-50.3 0-7.1-2-13.3-6.1-18.4-22.6-28.4-34-41.2-57.1-64.8-.1-13.7-.2-20.6-.3-34.3 14 .5 21 .8 34.9 1.4.2 15 .2 22.6.3 37.7z" fill="url(#j)"/><path d="m1455.3-126.6h1639.4v1156.6h-1639.4z" fill="#b63325"/><path d="m2029.7 266.7s33.7-19.9 85.8-10c0 0 32.6.8 54.4-1.7s47.6-26.1 108.2 16 199.4 120.4 378.8 184.7c0 0 29.9 7.8 126.3-16.3s30 91 30 91-36.6 72.4-80.7 63-44-9.4-44-9.4-162 101.3-315.7-45.3c0 0-19.1 22.8-31.6 21.2-12.5-1.7-83.9-12.5-147.9-42.4 0 0-15 15-31.6 3.3-16.6-11.6-41.5-15-20.8 21.6s73.6 98.8 73.6 98.8-347.7 37.4-386.8-87.2c0 0-5-13.3 0-39 0 0-28.8.2-37.7 23.8 0 0-23.8-21.8-10.5-47.7 0 0-13.3-.2-19.1 21 0 0-23.6-59.4 85-136.6 0 0-24.3-2.5-46.7 17.4.1.1 37.5-100.5 231-126.2z"/><path d="m1867.1 409.8s-62.4 32-73.8 102.3c0 0 16-56.9 107-77.2 0 0-47.8 19.1-74.6 56.2 0 0 22.7-27.5 58.4-35.4 0 0-25.9 20.9-37.3 56.4 0 0 21.5-49.4 78.7-58.6 0 0-59.2 30.3-61.6 85.3 0 0-27.7 94.4 296.3 81.8 0 0-135.1-147.7 8.1-145.1l18.3-106.3-91.6-24.3z" fill="#e75725"/><path d="m2186.5 369.3-91.6-24.3-227.8 64.9s-62.4 32-73.8 102.3c0 0 16-56.9 107-77.2 0 0-47.8 19.1-74.6 56.2 0 0 22.7-27.5 58.4-35.4 0 0-25.9 20.9-37.3 56.4 0 0 20.3-46.9 74.6-56.4 0 0-55.1 28.1-57.6 83.1 0-.1 25.3-118.7 322.7-169.6z" fill="#ce4928"/><path d="m2070.2 621.2c26.9.8 57.3.7 91.6-.6 0 0-135.1-147.7 8.1-145.1 0 0-145.9-46.8-99.7 145.7z" fill="#ce4928"/><path d="m2169.9 310.9s4.7-51 55.7-44.2 40.1 66.6-4.2 82.7c0 0-22.9-4.2-22.4-18.2s-12-3.1-12-3.1-17.6 1.5-17.1-17.2z" fill="#e75725"/><path d="m2221.4 349.4c44.2-16.1 55.1-76 4.2-82.7 0 0 67.8 21-4.2 82.7z" fill="#ce4928"/><path d="m2388.3 493-16.2-12.3-29.3-8.5-45.2-56.8-100.5-30-22.7 7.3 51.1 109.4s52 36.6 107.1 36.6 25.4-8.6 42-26.6 13.7-19.1 13.7-19.1z" fill="#fff"/><path d="m2192.5 398.5c77.4 109.9 166.2 126.9 166.2 126.9s6-3.2 15.8-13.3c9.2-9.6-23.8-51.2-23.8-51.2l-95.8-47.8-68.4-35.6s-49.8-58.2 6 21z" fill="#f1f2f2"/><path d="m2043 306.6s-174.1-3-252.8 173.4c0 0 27-35.5 126.4-68.9 0 0-70.7 40.2-79.9 87.3 0 0 110.3-105.7 248.7-91.3 0 0 6.3-2.3 3.4 8s1.1 38.5 9.8 49.4c0 0 0-33.9 16.7-45.4 0 0-4.6 26.4 9.2 54 0 0-5.7-14.4 6.3-20.7 12.1-6.3 17.2 14.9 17.2 14.9s6.9 28 20.1 34.7c0 0-8-18.6 0-26.6 0 0 91.8 65.9 164.3 63.2 0 0-124.1-10.9-138.4-133.9 0 0-8.3-20.7 13.7-4s53.6 47.1 124.8 71.2 296.4 53.4 298.7 53.4 32.2-8.6 32.2-8.6l9.7-36.8s-101.7-11.4-351.6-160.2c.1.2-145.8-96.3-278.5-13.1z" fill="#60100d"/><path d="m2050.5 316.1s-181.5-11.3-260.2 165.1c0 0 56.7-130.5 260.2-148.5s6.1-.5 6.1-.5 32.9 5.4-11.3-16.2" fill="#661617"/><path d="m2670.9 479.4s-101.7-11.4-351.6-160.2c0 0-145.9-96.5-278.6-13.2 0 0 144.7-49.4 294.5 38.2s264.2 129 335.7 135.2z" fill="#661617"/><path d="m2052.1 287.8s-99.2-4-190.6 73.2c0 0 111.5-66.4 189-36.6 77.6 29.7 1.6-36.6 1.6-36.6z" fill="#661617"/><path d="m2119.7 276.6s-99.7-4.5-191 72.8c0 0 111.5-66.4 189-36.6 77.6 29.7 2-36.2 2-36.2z" fill="#60100d"/><path d="m2130.2 315.9s-4.7-51-55.7-44.2-40.1 66.6 4.2 82.7c0 0 22.9-4.2 22.4-18.2s12-3.1 12-3.1 17.6 1.5 17.1-17.2z" fill="#e75725"/><path d="m2080.8 296.4c30.3 9.3 32.2 36.4 32.2 36.4s-12.5-10.9-12 3.1c0 0 1.6-24.7-20.2-39.5z" fill="#ce4928"/><path d="m2074.5 271.7c51-6.8 55.7 44.2 55.7 44.2.5 18.7-17.2 17.2-17.2 17.2s26.4-55.7-38.5-61.4z" fill="#ce4928"/><path d="m2332.5 472.1s75.8 8.6 120.1 0 89.6-6.8 132.7 19 56.9 21 56.9 21l41.4 44.4c-.1 0-152.3 124.7-351.1-84.4z" fill="#e75725"/><path d="m2642.1 512.1 41.4 44.4s-152.2 124.7-351-84.4c0 0 178.1 164.7 309.6 40z" fill="#ce4928"/><path d="m2645.5 479.2s80.7-11.9 124.9-21.2 46.7 12.7 39.9 28.9c-6.8 16.1-28.6 79.9-81 81.6s-98.3-54.9-98.3-56.4-17.5-28 14.5-32.9z"/><ellipse cx="2738.1" cy="491.1" fill="#fff" rx="33.1" ry="11"/><path d="m2088.9 415.2s-33.7-9.5-72.2 14c0 0 6.8-12.8 73.7-34.4s-1.5 20.4-1.5 20.4z" fill="#60100d"/><ellipse cx="2261.6" cy="379.8" fill="#661617" rx="56.7" ry="26.2" transform="matrix(.922 .3871 -.3871 .922 323.404 -845.9742)"/><ellipse cx="2261.6" cy="379.8" fill="#eaeaea" rx="43.3" ry="20" transform="matrix(.922 .3871 -.3871 .922 323.404 -845.9742)"/><ellipse cx="2263.6" cy="375.2" fill="#fff" rx="32.1" ry="19" transform="matrix(.922 .3871 -.3871 .922 321.7862 -847.0722)"/><circle cx="2261.6" cy="366.5" r="18.2"/><path d="m2203.3 354.4s37.1-12.4 73.1 18.9 45.4 36.7 79.3 39.6 30.9-24.4 30.9-24.4-149.9-84.3-183.3-34.1z" fill="#60100d"/><ellipse cx="2249.6" cy="376.1" fill="#fff" rx="4.5" ry="9.4" transform="matrix(.866 -.5 .5 .866 113.3487 1175.1616)"/><path d="m1455.3 1121.4h1639.4v559.9h-1639.4z"/><path d="m2209.1 1875.2c0 3-1.4 4.5-4.1 4.5h-13.5c-2.7 0-4-1.5-4-4.5v-11.7h6.7v10h8.2v-9.7l-13.4-14c-1-1-1.5-2.3-1.5-3.9v-11c0-3 1.3-4.5 4-4.5h13.5c2.7 0 4.1 1.5 4.1 4.5v11h-6.7v-9.3h-8.2v8.9l13.4 13.9c1 1 1.5 2.3 1.5 4z"/><path d="m2237.4 1837h-7.4v42.8h-6.7v-42.8h-7.4v-6.5h21.4v6.5z"/><path d="m2267.2 1879.7h-7l-7.4-22.9v-4.4h6.6v-15.6h-8.4v42.9h-6.7v-49.3h17.8c2.7 0 4 1.5 4 4.5v17.9c0 2.1-.6 3.4-1.9 4-.7.3-2.1.5-4.4.5z"/><path d="m2293.4 1879.7h-18.6v-49.3h18.4v6.5h-11.7v14.4h10.1v6.4h-10.1v15.5h11.9z"/><path d="m2324.2 1879.7h-6.6l-1.3-9.4h-8.4l-1.3 9.4h-6.6v-.1l8.7-49.2h7zm-8.9-15.6-3.3-22.2-3.3 22.2z"/><path d="m2358.5 1879.7h-6.4v-24.3c0-1.3.1-3.1.4-5.4l-5.8 25.2h-3.4l-5.8-25.2c.3 2.3.4 4.1.4 5.4v24.3h-6.4v-49.3h6.3l7 27.2c.1.3.1 1 .2 2.2 0-.5.1-1.3.2-2.2l7-27.2h6.3z"/><path d="m1998.6 2005.6c-.7 7.3-1 12.8-1.2 16.4-.4-7.1-.7-12.5-.9-16.1-5.2-35.3-10.3-70.5-15.2-105.8-9.4 0-14.1 0-23.5 0-6 38.5-11.8 77.1-17.3 115.7-.7 8-1.1 14.1-1.2 18.1-.4-7.8-.6-13.7-.9-17.7-4.8-38.7-9.4-77.4-14.1-116.1-6.1 0-10.6 0-15.3 0h-30.9l18.6 11.4c8.5 63.3 17 126.6 25.7 189.9 11-3.8 16.5-5.7 27.5-9.2 5.7-37 11.6-74 17.7-111 .7-7.6 1.1-13.3 1.1-17.2.4 7.5.7 13.1.8 16.9 6.4 41.3 9.6 61.4 15.9 100.6 11.1-3.1 16.6-4.6 27.8-7.4 9.7-58.1 19.8-116.1 30.4-174-11.6 0-17.4 0-29 0-5.4 35.1-10.8 70.3-16 105.5z" stroke="#000" stroke-miterlimit="10" stroke-width="3"/><path d="m2057.3 2063.7c31.8-6.7 47.8-9.4 79.9-13.7.1-7.9.2-11.9.3-19.8-20.5 2.4-30.7 3.8-51.1 7 .3-19.8.5-29.7.8-49.6 17.3-1.7 25.9-2.5 43.3-3.9.1-7.8.2-11.8.3-19.6-17.3 1-26 1.6-43.2 3 .3-18.5.4-27.7.7-46.1 20-.5 30.1-.7 50.1-1.1.1-7.9.2-11.9.3-19.8-31.5 0-47.3 0-78.8 0-.9 54.5-1.8 109-2.6 163.6z" stroke="#000" stroke-miterlimit="10" stroke-width="3"/><path d="m2189 1899.8c-13.2 49.3-26.2 98.7-39 148.1v.4c11.4-1.4 17.2-2 28.6-3.1 2.5-11.2 3.7-16.8 6.1-28 14.5-1.1 21.8-1.5 36.3-2.2 2.3 10.7 3.4 16 5.7 26.6 11.5-.6 17.3-.8 28.9-1.1-12.4-46.9-24.6-93.8-36.4-140.8-12.1.1-18.1.1-30.2.1zm-.2 98.6c5.9-26.4 8.9-39.4 14.8-65.4 5.4 25.7 8.1 38.5 13.5 64-11.4.5-17 .8-28.3 1.4z" stroke="#000" stroke-miterlimit="10" stroke-width="3"/><path d="m2358.4 1984.2c-23.3-17.1-34.9-25.2-58.1-41.1 0-10.2 0-15.2-.1-25.4 14 0 21.1.1 35.1.1.1 10.7.1 16 .2 26.7 11.5.2 17.3.3 28.8.6-.1-12.8-.2-19.2-.3-32.1-.1-8.7-5.9-13-17.5-13-23.1 0-34.6 0-57.7 0-11.5 0-17.3 4.3-17.3 12.9v31.2c0 4.5 2.1 8.3 6.3 11.2 23.1 15.9 34.7 23.8 58.1 40.7.1 11.1.1 16.7.2 27.8-14.2-.6-21.3-.8-35.5-1 0-11.4 0-17.2-.1-28.6-11.6-.1-17.4-.1-29-.1v33.5c0 8.5 5.8 12.7 17.5 12.8 23.5.1 35.2.5 58.6 1.9 11.8.7 17.6-3.2 17.5-11.9-.1-13.7-.2-20.5-.3-34.2-.1-4.9-2.2-8.9-6.4-12z" stroke="#000" stroke-miterlimit="10" stroke-width="3"/><path d="m2417.1 2029c-.2-18.6-.4-28-.6-46.6 17.3 1.2 26 1.9 43.3 3.5-.1-8-.2-12.1-.3-20.1-17.3-1.2-25.9-1.7-43.3-2.7-.2-17.4-.3-26-.6-43.4 20.1.3 30.1.5 50.2 1-.1-8.3-.2-12.4-.3-20.6-31.5 0-47.3 0-78.8 0 .5 48.5 1.1 96.9 1.6 145.4 32.2 3.1 48.3 5.3 80.3 10.8-.1-8.3-.2-12.4-.3-20.7-20.5-3.1-30.7-4.4-51.2-6.6z" stroke="#000" stroke-miterlimit="10" stroke-width="3"/><path d="m2516.6 2043.5c-.7-47.8-1.4-95.6-2.1-143.4-11.5 0-17.2 0-28.7 0 .8 53.2 1.6 106.5 2.4 159.7 30.2 5.8 45.3 9.2 75.1 17.1-.1-9.4-.2-14.2-.3-23.6-18.5-4.3-27.8-6.3-46.4-9.8z" stroke="#000" stroke-miterlimit="10" stroke-width="3"/><path d="m2641.6 1963.2c6.8.7 11.5 1.2 16.6 1.8l4.1.5c2.3.3 4.8.6 7.6.9l18.1 2.1-18.1-13.3c0-12.2 0-21.2 0-35.9 0-12.8-5.8-19.1-17.4-19.1-23.1 0-34.6 0-57.7 0-11.5 0-17.2 5.6-17.1 16.7.2 16.1.3 24.2.5 40.3.1 5.9 2.2 10.9 6.4 15.2 23.1 23.3 34.6 36 57.2 64 .1 15.8.1 23.6.2 39.4-13.7-4.1-20.6-6.1-34.4-9.8-.1-15.5-.2-23.2-.3-38.6-11.3-2.3-17-3.5-28.4-5.6.2 17.3.3 25.9.5 43.2.1 11 5.9 18.1 17.2 21.5 22.7 6.8 34 10.5 56.4 18.5 11.3 4 16.9-.2 16.9-13.1 0-20.1 0-30.2 0-50.3 0-7.1-2-13.3-6.1-18.4-22.6-28.4-34-41.2-57.1-64.8-.1-13.7-.2-20.6-.3-34.3 14 .5 21 .8 34.9 1.4.2 15 .2 22.6.3 37.7z" stroke="#000" stroke-miterlimit="10" stroke-width="3"/><path d="m-257.5 1121.4h1639.4v1156.6h-1639.4z" fill="#b63325"/><path d="m500.4 1722.6h-308.9c-6.6 0-12-5.4-12-12v-86.8c0-6.6 5.4-12 12-12h308.9c6.6 0 12 5.4 12 12v86.8c0 6.6-5.4 12-12 12z"/><path d="m214 1895s348.6-131.9 712.5 0l-42.1-135.5-576.4-20.5z"/><path d="m330.9 1681.4 153.5-.2-28.6 136.3-76.7 6.2z"/><path d="m614.5 1668.4h55.3l3.2 20.6-29.2 14z"/><path d="m673.9 1681.4-4.8 130.5-54.7 13.8-81.3-8.2-38.7-149.3h132.1z"/><path d="m702.8 1701.1h77.6v116.4h-77.6z"/><path d="m926.5 1696c-8.3 8.2 37.5-35.7 8.6-18s-12.7 14.8-12.7 14.8l10.9 19.3-4.6 32.5-17.1 10.9 28.7 49.2 16.8 53.5-15.4 9.4-63.7-4.7-47.6-9.9-31.3-13.4-11.1-171.2h108.5c0 .1 40.3 17.4 30 27.6z"/><path d="m970.2 1730v-29.3c0-19.8-11.6-32.1-30.4-32.1h-57.7c-9.4 0-16.9 2.7-22.3 8.2-5.3 5.3-7.9 12.6-7.8 21.6l.5 40.3c.1 9.3 3.5 17.4 10.1 24.2 12.2 12.3 21.1 21.6 30.5 32.2-8.9-1.8-14.5-2.9-24.5-4.8l-15.6-2.9.4 34.8-.3-.1c-15.1-3.5-24.2-5.4-36.5-7.8l-2.2-145.7h-49-.6-5.1-99l.1 12.9c-1.8-3.2-4.2-5.5-6.3-7.1-5.3-3.9-12.1-5.8-20.8-5.8h-57.7c-8.7 0-15.5 1.9-20.7 5.8-4.4 3.2-9.5 9.4-9.6 20.1v31.2c0 6.2 2 15.1 11.9 21.9l1.9 1.3c7.6 5.2 13.9 9.6 19.9 13.7-6.9 0-12.3 0-20.9 0l-12.9.1v19.3c-9.4-35.9-18.2-70.2-26.7-103.8l-2.5-9.8h-22.1l-3.1-14.9-3.4 14.9h-21.6l-2.6 9.6c-10.1 37.8-20.5 77.1-31.6 119.7l-8.8 1c-15.3 1.8-24.9 3-36.4 4.7l.3-22.6c10.2-1 18.1-1.7 31.5-2.7l11.8-.9.6-45.4-14 .8c-12.4.7-20.2 1.3-29.2 1.9l.3-19.4c12.4-.3 21.8-.5 37.6-.8l12.6-.2.6-45.6h-148.1l-1.7 11c-1.4 8.6-2.7 17.3-4.1 26-1.2-8.6-2.4-17.2-3.7-25.8l-1.6-11.2h-45.9l-1.7 11c-1.5 9.3-2.9 18.7-4.3 28.2-1.1-9.2-2.2-18.4-3.3-27.7l-1.4-11.5h-26.6l-77.4-.1 52.9 32.3c8.7 65.3 16.9 125.5 24.9 183.8l2.2 15.7 15-5.2c10.9-3.8 16.2-5.6 27.2-9.1l7.7-2.4 1.2-8c1.9-12.1 3.8-24.4 5.7-36.6 1.2 7.7 2.6 16.2 4.2 26.1l2.3 14.4 14-4c11-3.1 16.4-4.5 27.4-7.3l8.2-2.1 1.4-8.4c6.7-39.9 13.2-77.7 19.7-114.5l-1.8 118 15.9-3.3c31.5-6.6 47-9.3 79-13.5l6.3-.8 6.3-.8c11.4-1.4 16.9-2 28.3-3.1l9.4-.9 2-9.3c1.7-7.6 2.8-12.6 4-18.5 5.4-.4 10-.6 15.3-.9 1 4.9 2 9.4 3.4 15.8l2.3 10.8 11.1-.6c11.5-.6 17.1-.8 28.5-1.1l16.5-.4-.9-3.5c4.3 2.2 9.9 3.6 17.4 3.6 23.3.1 34.6.5 57.9 1.9 1.2.1 2.3.1 3.4.1 9 0 15.8-2.3 20.8-7.1 1.4-1.4 3-3.2 4.3-5.7l.2 14.7 11.6 1.1c32 3.1 47.6 5.2 79.3 10.6l9.7 1.7 9.7 1.9c30.1 5.7 44.6 9 74.2 16.9l16.5 4.4-.1-4.4c4.3 4.1 9.8 7.3 16.5 9.3 22.6 6.8 33.5 10.3 55.7 18.3 4.1 1.5 8 2.2 11.6 2.2 4.7 0 9-1.3 12.6-3.8 6.6-4.7 10-12.6 10-23.7v-50.3c0-10.1-3-19.1-8.9-26.5-13.2-16.6-22.6-27.9-32.2-38.6 5.5.6 9.7 1.1 14.1 1.5l5.6.6c2.1.2 4.4.5 7 .8l10 1.2 4.5.5 52.1 5.9zm-54.4 13.4c-2.8-2.9-5.7-6-8.8-9.2l-.1-15.4c3 .1 5.8.2 8.9.4zm-8.2 68.5c2.7 3.2 5.5 6.7 8.5 10.4l.1 17.3c-2.7-.8-5.4-1.5-8.4-2.4zm-150.2-7.9c-16.7-2.5-26.7-3.8-40.3-5.4l-.3-21c9 .7 16.7 1.3 29 2.4l14.4 1.3-.7-46.5-11.9-.8c-13.3-.9-21.3-1.5-31.3-2l-.2-17.8c11.9.2 21.2.4 36.7.8l7.8.2 1.4 89.5zm-156.9-91.9h9.2l.1 11.9c-2.9-2-5.9-4.1-9.2-6.4zm9.6 79.5c-3.2-.1-6.2-.2-9.5-.3v-14.1c3 2.1 6.1 4.4 9.5 6.8zm43.2-36.5c-8.4-6.2-15.4-11.2-22.2-16.1 6.5.1 11.8.2 20.1.4l10.3.2.3 25c-2-3.5-4.8-6.7-8.5-9.5z"/><path d="m210.1 1656.1c0 2-.9 3.1-2.8 3.1h-9.2c-1.8 0-2.8-1-2.8-3.1v-8h4.6v6.9h5.6v-6.6l-9.2-9.5c-.7-.7-1-1.6-1-2.7v-7.5c0-2.1.9-3.1 2.8-3.1h9.2c1.8 0 2.8 1 2.8 3.1v7.5h-4.6v-6.3h-5.5v6.1l9.2 9.5c.7.7 1 1.6 1 2.7v7.9z" fill="#fff"/><path d="m229.4 1630h-5v29.2h-4.6v-29.2h-5v-4.4h14.6z" fill="#fff"/><path d="m249.8 1659.2h-4.8l-5-15.6v-3h4.5v-10.7h-5.8v29.3h-4.6v-33.6h12.1c1.8 0 2.8 1 2.8 3.1v12.2c0 1.4-.4 2.3-1.3 2.8-.5.2-1.5.3-3 .3z" fill="#fff"/><path d="m267.7 1659.2h-12.7v-33.6h12.6v4.4h-8v9.8h6.9v4.4h-6.9v10.5h8.1z" fill="#fff"/><path d="m288.7 1659.2h-4.5l-.9-6.4h-5.7l-.9 6.4h-4.5v-.1l5.9-33.6h4.8zm-6.1-10.7-2.2-15.2-2.2 15.2z" fill="#fff"/><path d="m312.1 1659.2h-4.4v-16.6c0-.9.1-2.1.3-3.7l-3.9 17.2h-2.3l-4-17.2c.2 1.6.3 2.8.3 3.7v16.6h-4.4v-33.6h4.3l4.8 18.6c.1.2.1.7.1 1.5 0-.4 0-.9.1-1.5l4.8-18.6h4.3z" fill="#fff"/><path d="m755.8 1837.5c-.1-8.3-.2-12.4-.3-20.7-20.4-3.1-30.7-4.4-51.2-6.6-.2-18.6-.4-28-.6-46.6 17.3 1.2 26 1.9 43.3 3.5-.1-3.7-.1-6.5-.1-9.3-23.3-3-47.4-5.4-72.2-7.2.3 25.4.6 50.7.8 76.1 32.2 3.2 48.3 5.3 80.3 10.8z" fill="url(#k)"/><path d="m441.4 1434.3s21.2-12.6 54.1-6.3c0 0 20.5.5 34.3-1s30-16.5 68.2 10.1 125.7 75.9 238.7 116.4c0 0 18.8 4.9 79.6-10.3 60.7-15.2 18.9 57.3 18.9 57.3s-23.1 45.6-50.8 39.7-27.7-5.9-27.7-5.9-102.1 63.9-199-28.5c0 0-12 14.4-19.9 13.4s-52.9-7.9-93.2-26.7c0 0-9.4 9.4-19.9 2.1s-26.2-9.4-13.1 13.6 46.4 62.3 46.4 62.3-219.2 23.6-243.8-54.9c0 0-3.1-8.4 0-24.6 0 0-18.2.1-23.7 15 0 0-15-13.7-6.6-30.1 0 0-8.4-.1-12 13.2 0 0-14.9-37.4 53.5-86.1 0 0-15.3-1.6-29.5 11-.1-.1 23.5-63.4 145.5-79.7z"/><path d="m338.9 1524.5s-39.3 20.1-46.5 64.5c0 0 10.1-35.8 67.5-48.7 0 0-30.1 12.1-47 35.4 0 0 14.3-17.4 36.8-22.3 0 0-16.4 13.2-23.5 35.5 0 0 13.5-31.1 49.6-37 0 0-37.3 19.1-38.9 53.8 0 0-17.5 59.5 186.7 51.5 0 0-85.2-93.1 5.1-91.4l11.5-67-57.7-15.3z" fill="#e75725"/><path d="m540.2 1499-57.7-15.3-143.6 40.9s-39.3 20.1-46.5 64.5c0 0 10.1-35.8 67.5-48.7 0 0-30.1 12.1-47 35.4 0 0 14.3-17.4 36.8-22.3 0 0-16.4 13.2-23.5 35.5 0 0 12.8-29.6 47-35.5 0 0-34.7 17.7-36.3 52.4-.1 0 15.9-74.8 203.3-106.9z" fill="#ce4928"/><path d="m466.9 1657.8c16.9.5 36.1.4 57.7-.4 0 0-85.2-93.1 5.1-91.4 0 0-92-29.5-62.8 91.8z" fill="#ce4928"/><path d="m529.7 1462.2s3-32.1 35.1-27.9 25.2 42-2.6 52.1c0 0-14.4-2.6-14.1-11.5s-7.5-2-7.5-2-11.2 1.1-10.9-10.7z" fill="#e75725"/><path d="m562.2 1486.5c27.9-10.2 34.8-47.9 2.6-52.1 0-.1 42.8 13.2-2.6 52.1z" fill="#ce4928"/><path d="m667.3 1577-10.2-7.7-18.4-5.4-28.5-35.8-63.4-18.9-14.3 4.6 32.2 68.9s32.8 23.1 67.5 23 16-5.4 26.5-16.8c10.5-11.2 8.6-11.9 8.6-11.9z" fill="#fff"/><path d="m544 1517.4c48.8 69.3 104.8 80 104.8 80s3.8-2 9.9-8.4c5.8-6-15-32.3-15-32.3l-60.4-30.1-43.1-22.4s-31.4-36.7 3.8 13.2z" fill="#f1f2f2"/><path d="m449.7 1459.5s-109.7-1.9-159.3 109.3c0 0 17-22.4 79.7-43.4 0 0-44.5 25.3-50.3 55 0 0 69.5-66.6 156.8-57.6 0 0 4-1.4 2.2 5.1s.7 24.3 6.2 31.1c0 0 0-21.4 10.5-28.6 0 0-2.9 16.7 5.8 34 0 0-3.6-9.1 4-13 7.6-4 10.9 9.4 10.9 9.4s4.3 17.6 12.7 21.9c0 0-5.1-11.7 0-16.8 0 0 57.9 41.6 103.6 39.8 0 0-78.2-6.9-87.3-84.4 0 0-5.2-13 8.6-2.5s33.8 29.7 78.6 44.9 186.8 33.7 188.3 33.7c1.4 0 20.3-5.4 20.3-5.4l6.1-23.2s-64.1-7.2-221.6-101c-.2.1-92.2-60.8-175.8-8.3z" fill="#60100d"/><path d="m454.4 1465.5s-114.4-7.1-164 104.1c0 0 35.8-82.3 164-93.6s3.8-.3 3.8-.3 20.7 3.4-7.1-10.2" fill="#661617"/><path d="m845.5 1568.4s-64.1-7.2-221.6-101c0 0-92-60.8-175.6-8.3 0 0 91.2-31.2 185.6 24.1 94.3 55.2 166.5 81.3 211.6 85.2z" fill="#661617"/><path d="m455.5 1447.6s-62.5-2.5-120.1 46.2c0 0 70.2-41.9 119.1-23.1s1-23.1 1-23.1z" fill="#661617"/><path d="m498.1 1440.6s-62.8-2.8-120.4 45.9c0 0 70.2-41.9 119.1-23.1 48.9 18.7 1.3-22.8 1.3-22.8z" fill="#60100d"/><path d="m504.7 1465.4s-3-32.1-35.1-27.9-25.2 42 2.6 52.1c0 0 14.4-2.6 14.1-11.5s7.5-2 7.5-2 11.2 1.1 10.9-10.7z" fill="#e75725"/><path d="m473.5 1453.1c19.1 5.9 20.3 22.9 20.3 22.9s-7.9-6.9-7.5 2c0 0 1-15.6-12.8-24.9z" fill="#ce4928"/><path d="m469.6 1437.5c32.1-4.3 35.1 27.9 35.1 27.9.3 11.8-10.8 10.8-10.8 10.8s16.6-35.1-24.3-38.7z" fill="#ce4928"/><path d="m632.2 1563.8s47.8 5.4 75.7 0 56.5-4.3 83.6 12c27.2 16.3 35.8 13.2 35.8 13.2l26.1 28s-95.9 78.6-221.2-53.2z" fill="#e75725"/><path d="m827.4 1589 26.1 28s-96 78.6-221.2-53.2c-.1 0 112.1 103.8 195.1 25.2z" fill="#ce4928"/><path d="m829.4 1568.3s50.9-7.5 78.7-13.4c27.9-5.9 29.5 8 25.2 18.2s-18 50.4-51.1 51.4c-33 1.1-62-34.6-62-35.5.1-.9-10.9-17.6 9.2-20.7z"/><ellipse cx="887.8" cy="1575.8" fill="#fff" rx="20.9" ry="7"/><path d="m478.7 1528s-21.2-6-45.5 8.8c0 0 4.3-8.1 46.5-21.7 42.1-13.6-1 12.9-1 12.9z" fill="#60100d"/><ellipse cx="587.5" cy="1505.6" fill="#661617" rx="35.8" ry="16.5" transform="matrix(.922 .3871 -.3871 .922 628.7188 -110.0484)"/><ellipse cx="587.5" cy="1505.6" fill="#eaeaea" rx="27.3" ry="12.6" transform="matrix(.922 .3871 -.3871 .922 628.7188 -110.0484)"/><ellipse cx="588.7" cy="1502.7" fill="#fff" rx="20.2" ry="12" transform="matrix(.922 .3871 -.3871 .922 627.6992 -110.7405)"/><circle cx="587.5" cy="1497.3" r="11.5"/><path d="m550.7 1489.6s23.4-7.8 46.1 11.9 28.6 23.1 50 25 19.5-15.4 19.5-15.4-94.5-53.1-115.6-21.5z" fill="#60100d"/><ellipse cx="579.9" cy="1503.3" fill="#fff" rx="2.9" ry="5.9" transform="matrix(.866 -.5 .5 .866 -673.9473 491.3581)"/><path d="m207.7 1883c-8.1-59.2-16.5-121-25.6-189l-23.9-14.6 38 .1h17l.2 1.8c4.5 37.1 8.9 73.6 13.2 108.7 5.2-36.2 10.7-72.7 16.3-108.7l.3-1.7h27l.2 1.7c4.7 33.6 9.5 66.9 14.3 99.2 4.9-32.9 10-66.3 15.2-99.3l.3-1.7h33.1l-.4 2.4c-10.1 55.3-20.1 112.3-30.4 174l-.2 1.3-1.3.3c-11.2 2.8-16.6 4.3-27.7 7.4l-2.2.6-.4-2.2c-6-37-9.1-56.6-14.9-94.2-5.8 34.7-11.4 70-16.7 104.9l-.2 1.2-1.2.4c-11.1 3.5-16.5 5.3-27.5 9.2l-2.3.8z"/><path d="m330.9 1681.4c-10.6 57.9-20.7 116-30.4 174-11.1 2.8-16.7 4.3-27.8 7.4-6.3-39.2-9.5-59.3-15.9-100.6-.1-3.8-.4-9.4-.8-16.9 0 3.8-.4 9.5-1.1 17.2-6.2 37-12.1 74-17.7 111-11 3.5-16.5 5.4-27.5 9.2-8.7-63.3-17.2-126.6-25.7-189.9l-18.6-11.4h30.9 15.3c4.6 38.7 9.3 77.4 14.1 116.1.2 4 .5 9.9.9 17.7.1-4 .5-10 1.2-18.1 5.5-38.6 11.3-77.2 17.3-115.7h23.5c5 35.3 10.1 70.6 15.2 105.8.2 3.6.5 9 .9 16.1.1-3.7.5-9.1 1.2-16.4 5.2-35.2 10.6-70.3 16.1-105.5zm-179.7-4 12.2 7.4 17 10.4c9 67.5 17.3 129.1 25.4 188.1l.7 4.8 4.6-1.6c11-3.8 16.4-5.6 27.4-9.1l2.4-.8.4-2.5c4.7-30.8 9.6-61.8 14.7-92.5 4.7 30 7.7 49.2 13 81.9l.7 4.4 4.3-1.2c11.1-3.1 16.5-4.6 27.7-7.4l2.5-.6.4-2.6c10.3-61.7 20.3-118.7 30.4-174l.9-4.7h-4.8-29-3.4l-.5 3.4c-4.5 28.5-8.9 57.3-13.2 85.9-4.1-28.1-8.2-56.9-12.3-85.8l-.5-3.4h-3.5-23.5-3.4l-.5 3.4c-4.8 31.1-9.6 62.6-14.1 93.9-3.7-30.5-7.5-62-11.4-93.8l-.4-3.5h-3.5-15.3-30.9z" fill="#fff"/><path d="m345 1679.4h82.8l-.3 23.8h-1.9c-19.5.4-29.3.6-48.2 1l-.6 42c15.9-1.2 24.4-1.8 41.1-2.8l2.2-.1-.3 23.6-1.8.1c-16.8 1.3-25.3 2.1-41.5 3.7l-.7 45.4c19-3 29-4.3 48.9-6.7l2.3-.3-.3 23.8-1.7.2c-32.3 4.3-47.9 7-79.8 13.7l-2.4.5z"/><path d="m425.7 1681.4c-.1 7.9-.2 11.9-.3 19.8-20.1.4-30.1.6-50.1 1.1-.3 18.5-.4 27.7-.7 46.1 17.3-1.3 25.9-1.9 43.2-3-.1 7.8-.2 11.8-.3 19.6-17.3 1.4-26 2.1-43.3 3.9-.3 19.8-.5 29.7-.8 49.6 20.4-3.2 30.6-4.6 51.1-7-.1 7.9-.2 11.9-.3 19.8-32.1 4.3-48.1 7-79.9 13.7.8-54.5 1.7-109.1 2.5-163.6zm4.1-4h-4.1c-31.5 0-47.3 0-78.8 0h-3.9l-.1 3.9-1 65.5-1.5 98.2-.1 5 4.9-1c31.8-6.7 47.4-9.4 79.6-13.7l3.4-.5v-3.5l.1-5.8.2-14.1.1-4.6-4.5.5c-19 2.2-29.1 3.6-46.6 6.3l.6-41.3c15-1.5 23.5-2.3 39.6-3.5l3.6-.3.1-3.6.2-13.8.1-5.7.1-4.3-4.3.3c-15.9 1-24.4 1.5-38.9 2.6l.6-37.9c17.6-.4 27.4-.6 46.3-1l3.9-.1.1-3.9.1-10.3.1-9.6z" fill="#fff"/><path d="m435.2 1829.1.1-.2c14-53.7 26.7-102.1 39-148.2l.4-1.5h33.2l.4 1.5c11.3 44.9 23.2 91 36.4 140.8l.6 2.4-2.5.1c-11.6.3-17.2.5-28.8 1.1l-1.7.1-.4-1.7c-2.2-10.1-3.3-15.4-5.3-25-13 .6-20 1-33.1 2-2.2 10.2-3.5 15.8-5.8 26.5l-.3 1.4-1.5.1c-11.5 1.1-17.1 1.7-28.6 3.1l-2.3.3zm55.5-105.3c-4.4 19.6-7.3 32.3-12.2 53.8 8.9-.5 14.3-.8 23.3-1.2-4.6-21.3-7.2-33.6-11.1-52.6z"/><path d="m506.3 1681.2c11.8 47 24 93.9 36.4 140.8-11.6.3-17.3.5-28.9 1.1-2.3-10.6-3.4-16-5.7-26.6-14.5.7-21.8 1.1-36.3 2.2-2.4 11.2-3.7 16.8-6.1 28-11.5 1.1-17.2 1.7-28.6 3.1 0-.2 0-.2 0-.4 12.8-49.4 25.8-98.8 39-148.1 12.2-.1 18.2-.1 30.2-.1m-30.3 98.6c11.3-.7 17-1 28.3-1.4-5.5-25.4-8.2-38.2-13.5-64-5.9 26-8.9 39-14.8 65.4m33.5-102.6h-3.1-30.1-3.1l-.8 3c-12.3 46-25.1 94.5-39 148.2l-.1.5v.5.4l-.1 4.6 4.6-.6c11.4-1.4 17-2 28.5-3.1l2.9-.3.6-2.9c2.2-10.2 3.4-15.8 5.5-25.1 11.5-.8 18.4-1.2 29.8-1.8 1.8 8.6 2.9 13.8 5 23.3l.7 3.3 3.4-.2c11.6-.6 17.2-.8 28.8-1.1l5.1-.1-1.3-4.9c-13.2-49.8-25.1-95.8-36.4-140.8zm-28.5 98.3c3.8-16.8 6.4-28.3 9.6-42.3 2.9 13.7 5.2 24.8 8.8 41.4-6.8.3-11.7.5-18.4.9z" fill="#fff"/><path d="m637.3 1825.7c-.9 0-1.8 0-2.7-.1-23.5-1.4-35-1.8-58.5-1.9-13-.1-19.5-5-19.5-14.8v-35.4h2c4.8 0 8.6-.1 12.3-.1 4.9 0 9.6 0 16.8.1h2l.1 28.6c12.3.2 19.2.4 31.5.9l-.2-24.7c-22.2-16-34.1-24.2-55.6-38.9l-1.6-1.1c-4.8-3.3-7.1-7.6-7.1-12.8v-31.2c0-6.8 3.4-14.9 19.3-14.9h57.7c16 0 19.4 8.2 19.5 15l.3 34.1h-2.1c-11.6-.3-17.3-.4-28.8-.6h-2l-.2-26.7c-12.1-.1-19-.1-31.1-.1v22.3c23.2 16 34.7 24 57.2 40.6 4.7 3.5 7.2 8 7.2 13.5l.3 34.2c0 4.1-1.1 7.4-3.5 9.7-2.6 2.9-7 4.3-13.3 4.3z"/><path d="m576 1681.4h57.7c11.6 0 17.4 4.3 17.5 13 .1 12.8.2 19.2.3 32.1-11.5-.3-17.3-.4-28.8-.6-.1-10.7-.1-16-.2-26.7-14-.1-21.1-.1-35.1-.1 0 10.2 0 15.2.1 25.4 23.1 16 34.8 24 58.1 41.1 4.2 3.1 6.4 7.1 6.4 11.9.1 13.7.2 20.5.3 34.2.1 8.1-4.9 12-14.9 12-.8 0-1.7 0-2.6-.1-23.4-1.4-35.2-1.8-58.6-1.9-11.7-.1-17.6-4.2-17.5-12.8 0-13.4 0-20.1 0-33.5 4.8 0 8.6-.1 12.2-.1 5.1 0 9.9 0 16.7.1 0 11.5 0 17.2.1 28.6 14.2.2 21.3.4 35.5 1-.1-11.1-.1-16.7-.2-27.8-23.3-16.8-34.9-24.8-58.1-40.7-4.2-2.9-6.3-6.6-6.3-11.2 0-12.5 0-18.7 0-31.2.2-8.4 5.9-12.7 17.4-12.7m0-4v4-4c-7.9 0-21.3 2.2-21.3 16.9v30 1.2c0 5.8 2.8 10.8 8 14.5l1.7 1.2c21.1 14.5 33 22.7 54.6 38.3l.1 11.8.1 9.7c-10.4-.4-17-.6-27.5-.8v-22.8-1.9-3.9h-3.9c-7.2-.1-11.9-.1-16.8-.1-3.5 0-7.1 0-12.3.1h-4v4 29.9 3.5c0 6.2 2.8 16.7 21.5 16.8 23.5.1 35 .5 58.4 1.9 1 .1 1.9.1 2.8.1 6.8 0 11.7-1.6 14.9-4.9 2.7-2.7 4.1-6.5 4-11.2l-.2-17.1-.2-17.1c-.1-6.1-2.8-11.3-8-15.1-22.3-16.4-33.8-24.4-56.4-40v-19.3c10.3 0 16.8.1 27.1.1l.1 22.7v3.9l3.9.1c11.6.2 17.2.3 28.8.6l4.1.1v-4.1l-.1-16-.1-16.1c-.1-7-3.3-10.9-6.1-12.9-3.7-2.7-8.7-4-15.5-4z" fill="#fff"/><path d="m755.4 1839.5c-32-5.5-47.7-7.6-80.1-10.7l-1.8-.2-1.6-149.2h82.7l.4 24.7h-2.1c-19.4-.4-29.3-.6-48.1-1l.5 39.5c16.2.9 24.7 1.4 41.4 2.6l1.8.1.4 24.1-2.2-.2c-16.6-1.5-25.1-2.2-41.1-3.3l.6 42.7c19.5 2.1 29.6 3.4 49.5 6.4l1.7.3.4 24.8z"/><path d="m673.9 1681.4h78.8c.1 8.3.2 12.4.3 20.6-20.1-.5-30.1-.7-50.2-1 .2 17.4.3 26 .6 43.4 17.3.9 26 1.4 43.3 2.7.1 8 .2 12.1.3 20.1-17.3-1.6-26-2.3-43.3-3.5.2 18.6.4 28 .6 46.6 20.5 2.2 30.8 3.5 51.2 6.6.1 8.3.2 12.4.3 20.7-32-5.5-48-7.6-80.3-10.8-.5-48.5-1.1-96.9-1.6-145.4m-4-4v4l1.6 145.4v3.6l3.6.3c32.3 3.1 48 5.2 80 10.7l4.8.8-.1-4.8-.3-20.7-.1-3.4-3.4-.5c-19.4-2.9-29.4-4.2-47.8-6.2l-.3-19.8-.2-18.9c14.6 1 23.1 1.7 38.9 3.2l4.4.4-.1-4.4-.1-9.8-.2-10.3-.1-3.7-3.7-.3c-16.1-1.1-24.6-1.7-39.6-2.5l-.5-35.5c17.5.3 27.3.5 46 .9l4.2.1-.1-4.2v-1.3l-.3-19.3-.1-3.9h-3.9c-31.5 0-47.3 0-78.8 0z" fill="#fff"/><path d="m850 1860.1c-29.9-7.9-44.6-11.3-75-17l-1.6-.3-2.5-163.4h32.7l2.1 143.8c17.7 3.4 26.9 5.3 44.9 9.4l1.5.4.4 27.8z"/><path d="m773 1681.4h28.7c.7 47.8 1.4 95.6 2.1 143.4 18.6 3.5 27.9 5.5 46.5 9.7.1 9.4.2 14.2.3 23.6-29.9-7.9-44.9-11.3-75.1-17.1-.9-53.1-1.7-106.3-2.5-159.6m-4.1-4 .1 4.1.1 9.1 2.3 150.6v3.3l3.2.6c30.3 5.8 45 9.1 74.8 17l5.1 1.3-.1-5.3-.2-12.7-.1-10.9v-3.1l-3.1-.7c-17.6-4-26.7-6-43.4-9.1l-2.1-140.2-.1-3.9h-3.9-28.7z" fill="#fff"/><path d="m947.5 1889.6c-2.3 0-4.9-.5-7.9-1.6-22.4-8-33.5-11.7-56.3-18.5-12.2-3.7-18.5-11.5-18.6-23.4l-.5-45.6 2.4.5c11.4 2.2 17 3.3 28.4 5.6l1.6.3.3 38.7c12.1 3.3 18.7 5.2 30.4 8.7l-.2-36c-22.8-28.2-34.3-40.7-56.7-63.3-4.5-4.7-6.9-10.2-7-16.5l-.5-40.3c-.1-6 1.5-10.6 4.6-13.8 3.2-3.3 8.1-4.9 14.5-4.9h57.7c12.7 0 19.4 7.3 19.4 21.1v34.9l23.3 17.1-23.3-2.6-2.2-.2c-2.8-.3-5.3-.6-7.6-.9l-4.1-.5c-5.1-.6-9.9-1.1-16.6-1.8l-1.8-.2-.2-37.7c-12.1-.5-18.9-.8-30.9-1.3l.3 31.4c22.2 22.7 33.7 35.4 56.6 64.4 4.4 5.5 6.6 12.1 6.6 19.7v50.3c0 13.5-6.3 16.4-11.7 16.4z"/><path d="m882.1 1681.5h57.7c11.6 0 17.4 6.4 17.4 19.1v35.9l18.1 13.3-18.1-2.1c-2.8-.3-5.3-.6-7.6-.9l-4.1-.5c-5.1-.6-9.9-1.1-16.6-1.8-.1-15.1-.1-22.7-.2-37.9-14-.6-21-.9-34.9-1.4.1 13.7.2 20.6.3 34.3 23 23.6 34.5 36.3 57.1 64.8 4.1 5.1 6.1 11.3 6.1 18.4v50.3c0 9.7-3.2 14.5-9.7 14.5-2.1 0-4.5-.5-7.2-1.5-22.4-8-33.7-11.7-56.4-18.5-11.3-3.4-17.1-10.5-17.2-21.5-.2-17.3-.3-25.9-.5-43.2 11.4 2.1 17 3.3 28.4 5.6.1 15.5.2 23.2.3 38.6 13.8 3.7 20.7 5.7 34.4 9.8-.1-15.8-.1-23.6-.2-39.4-22.7-28.1-34.2-40.7-57.2-64-4.2-4.3-6.3-9.3-6.4-15.2-.2-16.1-.3-24.2-.5-40.3-.2-10.9 5.5-16.4 17-16.4m0-4c-6.9 0-12.3 1.9-15.9 5.5-3.5 3.6-5.3 8.7-5.2 15.2l.1 12.3.3 28c.1 6.9 2.6 12.9 7.5 17.9 22.2 22.5 33.6 34.9 56.1 62.6l.1 18.8.1 13.8c-9.7-2.9-16.1-4.7-26.4-7.5l-.1-16.3-.2-19.3v-3.2l-3.2-.7c-11.4-2.4-17-3.5-28.4-5.6l-4.8-.9.1 4.9.3 24.1.2 19.1c.1 12.7 7.1 21.4 20.1 25.3 22.8 6.8 33.8 10.4 56.2 18.5 3.2 1.1 6 1.7 8.5 1.7 5.1 0 13.7-2.4 13.7-18.5v-50.3c0-8-2.4-15.1-7-20.9-22.8-28.8-34.3-41.5-56.2-63.9l-.2-22.8v-5.6c10.2.4 16.7.7 26.9 1.1l.1 15.1.1 18.9v3.6l3.6.4c7.1.8 11.8 1.3 16.6 1.8l4.1.5c2.3.3 4.8.5 7.6.9l4.5.5 13.6 1.5 14.9 1.7-12.1-8.9-16.4-12.1v-33.9c0-14.9-7.6-23.1-21.4-23.1z" fill="#fff"/><path d="m285.8 1787c-.7 7.3-1 12.8-1.2 16.4-.4-7.1-.7-12.5-.9-16.1-5.2-35.3-10.3-70.5-15.2-105.8-9.4 0-14.1 0-23.5 0-6 38.5-11.8 77.1-17.3 115.7-.7 8-1.1 14.1-1.2 18.1-.4-7.8-.6-13.7-.9-17.7-4.8-38.7-9.4-77.4-14.1-116.1-6.1 0-10.6 0-15.3 0h-30.9l18.6 11.4c8.5 63.3 17 126.6 25.7 189.9 11-3.8 16.5-5.7 27.5-9.2 5.7-37 11.6-74 17.7-111 .7-7.6 1.1-13.3 1.1-17.2.4 7.5.7 13.1.8 16.9 6.4 41.3 9.6 61.4 15.9 100.6 11.1-3.1 16.6-4.6 27.8-7.4 9.7-58.1 19.8-116.1 30.4-174-11.6 0-17.4 0-29 0-5.4 35.2-10.8 70.4-16 105.5z" fill="url(#l)"/><path d="m344.5 1845.2c31.8-6.7 47.8-9.4 79.9-13.7.1-7.9.2-11.9.3-19.8-20.5 2.4-30.7 3.8-51.1 7 .3-19.8.5-29.7.8-49.6 17.3-1.7 25.9-2.5 43.3-3.9.1-7.8.2-11.8.3-19.6-17.3 1-26 1.6-43.2 3 .3-18.5.4-27.7.7-46.1 20-.5 30.1-.7 50.1-1.1.1-7.9.2-11.9.3-19.8-31.5 0-47.3 0-78.8 0-.9 54.5-1.8 109-2.6 163.6z" fill="url(#m)"/><path d="m476.2 1681.3c-13.2 49.3-26.2 98.7-39 148.1v.4c11.4-1.4 17.2-2 28.6-3.1 2.5-11.2 3.7-16.8 6.1-28 14.5-1.1 21.8-1.5 36.3-2.2 2.3 10.7 3.4 16 5.7 26.6 11.5-.6 17.3-.8 28.9-1.1-12.4-46.9-24.6-93.8-36.4-140.8-12.1.1-18.1.1-30.2.1zm-.2 98.6c5.9-26.4 8.9-39.4 14.8-65.4 5.4 25.7 8.1 38.5 13.5 64-11.4.5-17 .8-28.3 1.4z" fill="url(#n)"/><path d="m645.6 1765.7c-23.3-17.1-34.9-25.2-58.1-41.1 0-10.2 0-15.2-.1-25.4 14 0 21.1.1 35.1.1.1 10.7.1 16 .2 26.7 11.5.2 17.3.3 28.8.6-.1-12.8-.2-19.2-.3-32.1-.1-8.7-5.9-13-17.5-13-23.1 0-34.6 0-57.7 0-11.5 0-17.3 4.3-17.3 12.9v31.2c0 4.5 2.1 8.3 6.3 11.2 23.1 15.9 34.7 23.8 58.1 40.7.1 11.1.1 16.7.2 27.8-14.2-.6-21.3-.8-35.5-1 0-11.4 0-17.2-.1-28.6-11.6-.1-17.4-.1-29-.1v33.5c0 8.5 5.8 12.7 17.5 12.8 23.5.1 35.2.5 58.6 1.9 11.8.7 17.6-3.2 17.5-11.9-.1-13.7-.2-20.5-.3-34.2-.1-4.9-2.2-8.9-6.4-12z" fill="url(#o)"/><path d="m704.2 1810.4c-.2-18.6-.4-28-.6-46.6 17.3 1.2 26 1.9 43.3 3.5-.1-8-.2-12.1-.3-20.1-17.3-1.2-25.9-1.7-43.3-2.7-.2-17.4-.3-26-.6-43.4 20.1.3 30.1.5 50.2 1-.1-8.3-.2-12.4-.3-20.6-31.5 0-47.3 0-78.8 0 .5 48.5 1.1 96.9 1.6 145.4 32.2 3.1 48.3 5.3 80.3 10.8-.1-8.3-.2-12.4-.3-20.7-20.4-3-30.6-4.3-51.2-6.6z" fill="url(#p)"/><path d="m803.8 1825c-.7-47.8-1.4-95.6-2.1-143.4-11.5 0-17.2 0-28.7 0 .8 53.2 1.6 106.5 2.4 159.7 30.2 5.8 45.3 9.2 75.1 17.1-.1-9.4-.2-14.2-.3-23.6-18.5-4.3-27.8-6.3-46.4-9.8z" fill="url(#q)"/><path d="m928.8 1744.7c6.8.7 11.5 1.2 16.6 1.8l4.1.5c2.3.3 4.8.6 7.6.9l18.1 2.1-18.1-13.3c0-12.2 0-21.2 0-35.9 0-12.8-5.8-19.1-17.4-19.1-23.1 0-34.6 0-57.7 0-11.5 0-17.2 5.6-17.1 16.7.2 16.1.3 24.2.5 40.3.1 5.9 2.2 10.9 6.4 15.2 23.1 23.3 34.6 36 57.2 64 .1 15.8.1 23.6.2 39.4-13.7-4.1-20.6-6.1-34.4-9.8-.1-15.5-.2-23.2-.3-38.6-11.3-2.3-17-3.5-28.4-5.6.2 17.3.3 25.9.5 43.2.1 11 5.9 18.1 17.2 21.5 22.7 6.8 34 10.5 56.4 18.5 11.3 4 16.9-.2 16.9-13.1 0-20.1 0-30.2 0-50.3 0-7.1-2-13.3-6.1-18.4-22.6-28.4-34-41.2-57.1-64.8-.1-13.7-.2-20.6-.3-34.3 14 .5 21 .8 34.9 1.4.2 15 .2 22.6.3 37.7z" fill="url(#r)"/><path d="m-257.5 2392.8h1639.4v1156.6h-1639.4z" fill="#e75725"/><path d="m210.1 2927.6c0 2-.9 3.1-2.8 3.1h-9.2c-1.8 0-2.8-1-2.8-3.1v-8h4.6v6.9h5.6v-6.6l-9.2-9.5c-.7-.7-1-1.6-1-2.7v-7.5c0-2.1.9-3.1 2.8-3.1h9.2c1.8 0 2.8 1 2.8 3.1v7.5h-4.6v-6.3h-5.5v6.1l9.2 9.5c.7.7 1 1.6 1 2.7v7.9z" fill="#fff"/><path d="m229.4 2901.5h-5v29.2h-4.6v-29.2h-5v-4.4h14.6z" fill="#fff"/><path d="m249.8 2930.6h-4.8l-5-15.6v-3h4.5v-10.7h-5.8v29.3h-4.6v-33.6h12.1c1.8 0 2.8 1 2.8 3.1v12.2c0 1.4-.4 2.3-1.3 2.8-.5.2-1.5.3-3 .3z" fill="#fff"/><path d="m267.7 2930.6h-12.7v-33.6h12.6v4.4h-8v9.8h6.9v4.4h-6.9v10.5h8.1z" fill="#fff"/><path d="m288.7 2930.6h-4.5l-.9-6.4h-5.7l-.9 6.4h-4.5v-.1l5.9-33.6h4.8zm-6.1-10.7-2.2-15.2-2.2 15.2z" fill="#fff"/><path d="m312.1 2930.6h-4.4v-16.6c0-.9.1-2.1.3-3.7l-3.9 17.2h-2.3l-4-17.2c.2 1.6.3 2.8.3 3.7v16.6h-4.4v-33.6h4.3l4.8 18.6c.1.2.1.7.1 1.5 0-.4 0-.9.1-1.5l4.8-18.6h4.3z" fill="#fff"/><path d="m338.9 2796s-39.3 20.1-46.5 64.5c0 0 10.1-35.8 67.5-48.7 0 0-30.1 12.1-47 35.4 0 0 14.3-17.4 36.8-22.3 0 0-16.4 13.2-23.5 35.5 0 0 13.5-31.1 49.6-37 0 0-37.3 19.1-38.9 53.8 0 0-17.5 59.5 186.7 51.5 0 0-85.2-93.1 5.1-91.4l11.5-67-57.7-15.3z" fill="#e75725"/><path d="m540.2 2770.4-57.7-15.3-143.6 40.9s-39.3 20.1-46.5 64.5c0 0 10.1-35.8 67.5-48.7 0 0-30.1 12.1-47 35.4 0 0 14.3-17.4 36.8-22.3 0 0-16.4 13.2-23.5 35.5 0 0 12.8-29.6 47-35.5 0 0-34.7 17.7-36.3 52.4-.1 0 15.9-74.8 203.3-106.9z" fill="#ce4928"/><path d="m466.9 2929.2c16.9.5 36.1.4 57.7-.4 0 0-85.2-93.1 5.1-91.4 0 0-92-29.5-62.8 91.8z" fill="#ce4928"/><path d="m529.7 2733.6s3-32.1 35.1-27.9 25.2 42-2.6 52.1c0 0-14.4-2.6-14.1-11.5s-7.5-2-7.5-2-11.2 1.1-10.9-10.7z" fill="#e75725"/><path d="m562.2 2757.9c27.9-10.2 34.8-47.9 2.6-52.1 0 0 42.8 13.2-2.6 52.1z" fill="#ce4928"/><path d="m667.3 2848.4-10.2-7.7-18.4-5.4-28.5-35.8-63.4-18.9-14.3 4.6 32.2 68.9s32.8 23.1 67.5 23 16-5.4 26.5-16.8c10.5-11.2 8.6-11.9 8.6-11.9z" fill="#fff"/><path d="m544 2788.9c48.8 69.3 104.8 80 104.8 80s3.8-2 9.9-8.4c5.8-6-15-32.3-15-32.3l-60.4-30.1-43.1-22.4c0-.1-31.4-36.8 3.8 13.2z" fill="#f1f2f2"/><path d="m449.7 2730.9s-109.7-1.9-159.3 109.3c0 0 17-22.4 79.7-43.4 0 0-44.5 25.3-50.3 55 0 0 69.5-66.6 156.8-57.6 0 0 4-1.4 2.2 5.1s.7 24.3 6.2 31.1c0 0 0-21.4 10.5-28.6 0 0-2.9 16.7 5.8 34 0 0-3.6-9.1 4-13 7.6-4 10.9 9.4 10.9 9.4s4.3 17.6 12.7 21.9c0 0-5.1-11.7 0-16.8 0 0 57.9 41.6 103.6 39.8 0 0-78.2-6.9-87.3-84.4 0 0-5.2-13 8.6-2.5s33.8 29.7 78.6 44.9c44.9 15.2 186.8 33.7 188.3 33.7 1.4 0 20.3-5.4 20.3-5.4l6.1-23.2s-64.1-7.2-221.6-101c-.2.1-92.2-60.8-175.8-8.3z" fill="#60100d"/><path d="m454.4 2736.9s-114.4-7.1-164 104.1c0 0 35.8-82.3 164-93.6 128.3-11.3 3.8-.3 3.8-.3s20.7 3.4-7.1-10.2" fill="#661617"/><path d="m845.5 2839.8s-64.1-7.2-221.6-101c0 0-92-60.8-175.6-8.3 0 0 91.2-31.2 185.6 24.1 94.3 55.2 166.5 81.3 211.6 85.2z" fill="#661617"/><path d="m455.5 2719s-62.5-2.5-120.1 46.2c0 0 70.2-41.9 119.1-23.1s1-23.1 1-23.1z" fill="#661617"/><path d="m498.1 2712s-62.8-2.8-120.4 45.9c0 0 70.2-41.9 119.1-23.1s1.3-22.8 1.3-22.8z" fill="#60100d"/><path d="m504.7 2736.8s-3-32.1-35.1-27.9-25.2 42 2.6 52.1c0 0 14.4-2.6 14.1-11.5s7.5-2 7.5-2 11.2 1.1 10.9-10.7z" fill="#e75725"/><path d="m473.5 2724.5c19.1 5.9 20.3 22.9 20.3 22.9s-7.9-6.9-7.5 2c0 0 1-15.6-12.8-24.9z" fill="#ce4928"/><path d="m469.6 2708.9c32.1-4.3 35.1 27.9 35.1 27.9.3 11.8-10.8 10.8-10.8 10.8s16.6-35.1-24.3-38.7z" fill="#ce4928"/><path d="m632.2 2835.2s47.8 5.4 75.7 0 56.5-4.3 83.6 12c27.2 16.3 35.8 13.2 35.8 13.2l26.1 28c0 .1-95.9 78.6-221.2-53.2z" fill="#e75725"/><path d="m827.4 2860.5 26.1 28s-96 78.6-221.2-53.2c-.1-.1 112.1 103.8 195.1 25.2z" fill="#ce4928"/><path d="m829.4 2839.7s50.9-7.5 78.7-13.4c27.9-5.9 29.5 8 25.2 18.2s-18 50.4-51.1 51.4c-33 1.1-62-34.6-62-35.5.1-.9-10.9-17.6 9.2-20.7z"/><ellipse cx="887.8" cy="2847.2" fill="#fff" rx="20.9" ry="7"/><path d="m478.7 2799.4s-21.2-6-45.5 8.8c0 0 4.3-8.1 46.5-21.7 42.1-13.6-1 12.9-1 12.9z" fill="#60100d"/><ellipse cx="587.5" cy="2777" fill="#661617" rx="35.8" ry="16.5" transform="matrix(.922 .3871 -.3871 .922 1120.9485 -10.8994)"/><ellipse cx="587.5" cy="2777" fill="#eaeaea" rx="27.3" ry="12.6" transform="matrix(.922 .3871 -.3871 .922 1120.9485 -10.8994)"/><ellipse cx="588.7" cy="2774.2" fill="#fff" rx="20.2" ry="12" transform="matrix(.922 .3871 -.3871 .922 1119.9288 -11.5914)"/><circle cx="587.5" cy="2768.7" r="11.5"/><path d="m550.7 2761s23.4-7.8 46.1 11.9 28.6 23.1 50 25 19.5-15.4 19.5-15.4-94.5-53.1-115.6-21.5z" fill="#60100d"/><ellipse cx="579.9" cy="2774.7" fill="#fff" rx="2.9" ry="5.9" transform="matrix(.866 -.5 .5 .866 -1309.6584 661.6965)"/><path d="m330.9 2952.9c-10.6 57.9-20.7 116-30.4 174-11.1 2.8-16.7 4.3-27.8 7.4-6.3-39.2-9.5-59.3-15.9-100.6-.1-3.8-.4-9.4-.8-16.9 0 3.8-.4 9.5-1.1 17.2-6.2 37-12.1 74-17.7 111-11 3.5-16.5 5.4-27.5 9.2-8.7-63.3-17.2-126.6-25.7-189.9l-18.6-11.4 30.9.1h15.3c4.6 38.7 9.3 77.4 14.1 116.1.2 4 .5 9.9.9 17.7.1-4 .5-10 1.2-18.1 5.5-38.6 11.3-77.2 17.3-115.7h23.5c5 35.3 10.1 70.6 15.2 105.8.2 3.6.5 9 .9 16.1.1-3.7.5-9.1 1.2-16.4 5.2-35.2 10.6-70.4 16.1-105.5 11.5-.1 17.3-.1 28.9-.1m-179.7-4.1 12.2 7.4 17 10.4c9 67.5 17.3 129.1 25.4 188.1l.7 4.8 4.6-1.6c11-3.8 16.4-5.6 27.4-9.1l2.4-.8.4-2.5c4.7-30.8 9.6-61.8 14.7-92.5 4.7 30 7.7 49.1 13 81.9l.7 4.4 4.3-1.2c11.1-3.1 16.5-4.6 27.7-7.4l2.5-.6.4-2.6c10.3-61.7 20.3-118.6 30.4-174l.9-4.7h-4.8-29-3.4l-.5 3.4c-4.5 28.5-8.9 57.3-13.2 85.9-4.1-28.1-8.2-56.9-12.3-85.8l-.5-3.4h-3.5-23.5-3.4l-.5 3.4c-4.8 31.1-9.6 62.6-14.1 93.9-3.7-30.5-7.5-62-11.4-93.8l-.4-3.5h-3.5-2.7-12.5l-30.9-.1z" fill="#fff"/><path d="m425.7 2952.8c-.1 7.9-.2 11.9-.3 19.8-20.1.4-30.1.6-50.1 1.1-.3 18.5-.4 27.7-.7 46.1 17.3-1.3 25.9-1.9 43.2-3-.1 7.8-.2 11.8-.3 19.6-17.3 1.4-26 2.1-43.3 3.9-.3 19.8-.5 29.7-.8 49.6 20.4-3.2 30.6-4.6 51.1-7-.1 7.9-.2 11.9-.3 19.8-32.1 4.3-48.1 7-79.9 13.7.8-54.5 1.7-109.1 2.5-163.6zm4.1-4h-4.1c-31.5 0-47.3 0-78.8 0h-3.9l-.1 3.9-2.5 163.6-.1 5 4.9-1c31.8-6.7 47.4-9.4 79.6-13.7l3.4-.5v-3.5l.1-6 .2-13.9.1-4.6-4.5.5c-19 2.2-29.1 3.6-46.6 6.3l.6-41.3c15-1.5 23.5-2.3 39.6-3.5l3.6-.3.1-3.6.2-13.8.1-5.8.1-4.3-4.3.3c-15.9 1-24.4 1.5-38.9 2.6l.6-37.9c17.6-.4 27.5-.6 46.3-1l3.9-.1.1-3.9.1-10.3.1-9.6z" fill="#fff"/><path d="m506.3 2952.6c11.8 47 24 93.9 36.4 140.8-11.6.3-17.3.5-28.9 1.1-2.3-10.6-3.4-16-5.7-26.6-14.5.7-21.8 1.1-36.3 2.2-2.4 11.2-3.7 16.8-6.1 28-11.5 1.1-17.2 1.7-28.6 3.1 0-.2 0-.2 0-.4 12.8-49.4 25.8-98.8 39-148.1 12.2-.1 18.2-.1 30.2-.1m-30.3 98.6c11.3-.7 17-1 28.3-1.4-5.5-25.4-8.2-38.2-13.5-64-5.9 26-8.9 39.1-14.8 65.4m33.5-102.6h-3.1-30.1-3.1l-.8 3c-12.3 46-25.1 94.5-39 148.2l-.1.5v.5.4l-.1 4.6 4.6-.6c11.5-1.4 17.1-2 28.5-3.1l2.9-.3.6-2.9c2.2-10.2 3.4-15.8 5.5-25.1 11.5-.8 18.4-1.2 29.8-1.8 1.8 8.6 2.9 13.8 5 23.3l.7 3.3 3.4-.2c11.6-.6 17.2-.8 28.8-1.1l5.1-.1-1.3-4.9c-13.2-49.8-25.1-95.8-36.4-140.8zm-28.5 98.3c3.8-16.8 6.4-28.3 9.6-42.3 2.9 13.7 5.2 24.8 8.8 41.4-6.8.3-11.7.6-18.4.9z" fill="#fff"/><path d="m576 2952.8h57.7c11.6 0 17.4 4.3 17.5 13 .1 12.8.2 19.2.3 32.1-11.5-.3-17.3-.4-28.8-.6-.1-10.7-.1-16-.2-26.7-14-.1-21.1-.1-35.1-.1 0 10.2 0 15.2.1 25.4 23.1 16 34.8 24 58.1 41.1 4.2 3.1 6.4 7.1 6.4 11.9.1 13.7.2 20.5.3 34.2.1 8.1-4.9 12-15 12-.8 0-1.7 0-2.6-.1-23.4-1.4-35.2-1.8-58.6-1.9-11.7-.1-17.6-4.2-17.5-12.8 0-13.4 0-20.1 0-33.5 4.8 0 8.6-.1 12.2-.1 5.1 0 9.9 0 16.7.1 0 11.4 0 17.2.1 28.6 14.2.2 21.3.4 35.5 1-.1-11.1-.1-16.7-.2-27.8-23.3-16.8-34.9-24.8-58.1-40.7-4.2-2.9-6.3-6.6-6.3-11.2 0-12.5 0-18.7 0-31.2.3-8.4 6-12.7 17.5-12.7m0-4c-7.9 0-21.3 2.2-21.3 16.9v30.1 1.2c0 5.8 2.8 10.8 8 14.5l1.7 1.2c21.1 14.5 33 22.7 54.6 38.3l.1 11.9.1 9.7c-10.4-.4-17-.6-27.5-.8v-22.8-1.9-3.9h-3.9c-7.2-.1-11.9-.1-16.8-.1-3.5 0-7.1 0-12.3.1h-4v4 29.9 3.5c0 6.2 2.8 16.7 21.5 16.8 23.5.1 35 .5 58.4 1.9 1 .1 1.9.1 2.8.1 6.8 0 11.7-1.6 14.9-4.9 2.7-2.7 4.1-6.5 4-11.2l-.2-17.1-.2-17.1c-.1-6.1-2.8-11.3-8-15.1-22.3-16.4-33.8-24.4-56.4-40v-19.3c10.3 0 16.8.1 27.1.1l.1 22.7v3.9l3.9.1c11.5.2 17.2.3 28.8.6l4.1.1v-4.1l-.1-16-.1-16c-.1-7-3.3-10.9-6.1-12.9-3.7-2.7-8.7-4-15.5-4z" fill="#fff"/><path d="m673.9 2952.8h78.8c.1 8.3.2 12.4.3 20.6-20.1-.5-30.1-.7-50.2-1 .2 17.4.3 26 .6 43.4 17.3.9 26 1.4 43.3 2.7.1 8 .2 12.1.3 20.1-17.3-1.6-26-2.3-43.3-3.5.2 18.6.4 28 .6 46.6 20.5 2.2 30.8 3.5 51.2 6.6.1 8.3.2 12.4.3 20.7-32-5.5-48-7.6-80.3-10.8-.5-48.5-1.1-96.9-1.6-145.4m-4-4v4l1.6 145.4v3.6l3.6.3c32.3 3.1 48 5.2 80 10.7l4.8.8-.1-4.8-.3-20.7-.1-3.4-3.4-.5c-19.4-2.9-29.4-4.2-47.8-6.2l-.3-19.8-.2-18.9c14.6 1 23.1 1.7 38.9 3.2l4.4.4-.1-4.4-.1-9.8-.2-10.3-.1-3.7-3.7-.3c-16.1-1.1-24.6-1.7-39.6-2.5l-.5-35.5c17.5.3 27.3.5 46 .9l4.2.1-.1-4.2v-1.3l-.3-19.3-.1-3.9h-3.9c-31.5 0-47.3 0-78.8 0z" fill="#fff"/><path d="m773 2952.8h28.7c.7 47.8 1.4 95.6 2.1 143.4 18.6 3.5 27.9 5.5 46.5 9.7.1 9.4.2 14.2.3 23.6-29.9-7.9-44.9-11.3-75.1-17.1-.9-53.1-1.7-106.3-2.5-159.6m-4.1-4 .1 4.1.1 8.6 2.3 151.1v3.3l3.2.6c30.3 5.8 45 9.1 74.8 17l5.1 1.3-.1-5.3-.2-12.7-.1-10.9v-3.1l-3.1-.7c-17.6-4-26.7-6-43.4-9.1l-2.1-140.2-.1-3.9h-3.9-28.7z" fill="#fff"/><path d="m882.1 2952.9h57.7c11.6 0 17.4 6.4 17.4 19.1v35.9l18.1 13.3-18.1-2.1c-2.8-.3-5.3-.6-7.6-.9l-4.1-.5c-5.1-.6-9.9-1.1-16.6-1.8-.1-15.1-.1-22.7-.2-37.9-14-.6-21-.9-34.9-1.4.1 13.7.2 20.6.3 34.3 23 23.6 34.5 36.3 57.1 64.8 4.1 5.1 6.1 11.3 6.1 18.4v50.3c0 9.7-3.2 14.5-9.7 14.5-2.1 0-4.5-.5-7.2-1.5-22.4-8-33.7-11.7-56.4-18.5-11.3-3.4-17.1-10.5-17.2-21.5-.2-17.3-.3-25.9-.5-43.2 11.4 2.1 17 3.3 28.4 5.6.1 15.5.2 23.2.3 38.6 13.8 3.7 20.7 5.7 34.4 9.8-.1-15.8-.1-23.6-.2-39.4-22.7-28.1-34.2-40.7-57.2-64-4.2-4.3-6.3-9.3-6.4-15.2-.2-16.1-.3-24.2-.5-40.3-.2-10.9 5.5-16.4 17-16.4m0-4c-6.9 0-12.3 1.9-15.9 5.5-3.5 3.6-5.3 8.7-5.2 15.2l.1 12.3.3 28c.1 6.9 2.6 12.9 7.5 17.9 22.2 22.5 33.6 34.9 56.1 62.6l.1 18.8.1 13.8c-9.7-2.9-16.1-4.7-26.4-7.5l-.1-16.3-.2-19.3v-3.2l-3.2-.7c-11.4-2.4-17-3.5-28.4-5.6l-4.8-.9.1 4.9.3 24.1.2 19.1c.1 12.7 7.1 21.4 20.1 25.3 22.8 6.8 33.8 10.4 56.2 18.5 3.2 1.1 6 1.7 8.5 1.7 5.1 0 13.7-2.4 13.7-18.5v-50.3c0-8-2.4-15.1-7-20.9-22.8-28.8-34.3-41.5-56.2-63.9l-.2-22.9v-5.6c10.2.4 16.7.7 26.9 1.1l.1 15 .1 19.1v3.6l3.6.4c7.1.8 11.8 1.3 16.6 1.8l4.1.5c2.3.3 4.8.5 7.6.9l4.5.5 13.6 1.5 14.9 1.7-12.1-8.9-16.4-12.1v-34.1c0-14.9-7.6-23.1-21.4-23.1z" fill="#fff"/><path d="m1455.3 2392.8h1639.4v1156.6h-1639.4z" fill="#e75725"/><g fill="#fff"><path d="m2209.1 1317.8c0 3-1.4 4.5-4.1 4.5h-13.5c-2.7 0-4-1.5-4-4.5v-11.8h6.7v10h8.2v-9.7l-13.4-14c-1-1-1.5-2.3-1.5-3.9v-11c0-3 1.3-4.5 4-4.5h13.5c2.7 0 4.1 1.5 4.1 4.5v11h-6.7v-9.3h-8.2v8.9l13.4 13.9c1 1 1.5 2.3 1.5 4z"/><path d="m2237.4 1279.5h-7.4v42.8h-6.7v-42.8h-7.4v-6.5h21.4v6.5z"/><path d="m2267.2 1322.3h-7l-7.4-22.9v-4.4h6.6v-15.6h-8.4v42.9h-6.7v-49.3h17.8c2.7 0 4 1.5 4 4.5v17.9c0 2.1-.6 3.4-1.9 4-.7.3-2.1.5-4.4.5z"/><path d="m2293.4 1322.3h-18.6v-49.3h18.4v6.5h-11.7v14.4h10.1v6.4h-10.1v15.5h11.9z"/><path d="m2324.2 1322.3h-6.6l-1.3-9.4h-8.4l-1.3 9.4h-6.6v-.1l8.7-49.2h7zm-8.9-15.7-3.3-22.2-3.3 22.2z"/><path d="m2358.5 1322.3h-6.4v-24.3c0-1.3.1-3.1.4-5.4l-5.8 25.2h-3.4l-5.8-25.2c.3 2.3.4 4.1.4 5.4v24.3h-6.4v-49.3h6.3l7 27.2c.1.3.1 1 .2 2.2 0-.5.1-1.3.2-2.2l7-27.2h6.3z"/><path d="m1921 1544.1c-8.1-59.2-16.5-121.1-25.6-189.2l-22.6-13.8 36.2.1h16.6l.2 1.3c4.6 38.2 9.2 76 13.6 112.4 5.4-37.6 11-75.4 16.8-112.5l.2-1.3h26.1l.2 1.3c4.9 34.7 9.9 69.2 14.8 102.6 5.1-34.1 10.3-68.6 15.7-102.6l.2-1.3h32.1l-.3 1.8c-10.1 55.3-20.1 112.3-30.4 174l-.2 1-.9.2c-11.2 2.8-16.6 4.3-27.7 7.4l-1.6.5-.3-1.7c-6.1-38-9.2-57.7-15.4-97.3-5.9 35.7-11.7 72-17.2 107.9l-.1.9-.9.3c-11.1 3.5-16.5 5.3-27.5 9.2l-1.7.6z"/><path d="m2043.8 1342.6c-10.6 57.9-20.7 116-30.4 174-11.1 2.8-16.7 4.3-27.8 7.4-6.3-39.2-9.5-59.3-15.9-100.6-.1-3.8-.4-9.4-.8-16.9 0 3.8-.4 9.5-1.1 17.2-6.2 37-12.1 74-17.7 111-11 3.5-16.5 5.4-27.5 9.2-8.7-63.3-17.2-126.6-25.7-189.9l-18.6-11.4h30.9 15.3c4.6 38.7 9.3 77.4 14.1 116.1.2 4 .5 9.9.9 17.7.1-4 .5-10 1.2-18.1 5.5-38.6 11.3-77.2 17.3-115.7h23.5c5 35.3 10.1 70.6 15.2 105.8.2 3.6.5 9 .9 16.1.1-3.7.5-9.1 1.2-16.4 5.2-35.2 10.6-70.3 16.1-105.5zm-176.3-3 9.1 5.6 17.4 10.6c9 67.7 17.4 129.4 25.5 188.5l.5 3.6 3.5-1.2c11-3.8 16.4-5.6 27.4-9.1l1.8-.6.3-1.8c5-32.8 10.3-66 15.7-98.7 5.2 33.7 8.3 53.1 13.9 88l.5 3.3 3.2-.9c11.1-3.1 16.5-4.6 27.7-7.4l1.9-.5.3-1.9c10.3-61.8 20.3-118.7 30.4-174l.6-3.5h-3.6-29-2.6l-.4 2.5c-4.8 30.7-9.6 61.8-14.2 92.6-4.4-30.3-8.9-61.3-13.3-92.5l-.4-2.6h-2.6-23.5-2.6l-.4 2.5c-5.2 33.5-10.3 67.5-15.2 101.3-4-32.8-8.1-66.8-12.3-101.2l-.3-2.6h-2.7-11.1-4.1-30.9z"/><path d="m2058.3 1341.1h81.8l-.3 22.8h-1.5c-19.7.4-29.5.6-48.7 1l-.7 43.1c16.3-1.3 24.8-1.8 41.6-2.9l1.6-.1-.3 22.6-1.4.1c-17 1.3-25.5 2.1-41.9 3.8l-.7 46.5c19.3-3 29.4-4.4 49.4-6.7l1.7-.2-.3 22.8-1.3.2c-32.3 4.3-47.9 7-79.8 13.7l-1.8.4z"/><path d="m2138.6 1342.6c-.1 7.9-.2 11.9-.3 19.8-20.1.4-30.1.6-50.1 1.1-.3 18.5-.4 27.7-.7 46.1 17.3-1.3 25.9-1.9 43.2-3-.1 7.8-.2 11.8-.3 19.6-17.3 1.4-26 2.1-43.3 3.9-.3 19.8-.5 29.7-.8 49.6 20.4-3.2 30.6-4.6 51.1-7-.1 7.9-.2 11.9-.3 19.8-32.1 4.3-48.1 7-79.9 13.7.8-54.5 1.7-109.1 2.5-163.6zm3-3h-3c-31.5 0-47.3 0-78.8 0h-3v3l-1.2 81.8-1.2 81.8-.1 3.8 3.7-.8c31.8-6.7 47.5-9.4 79.7-13.7l2.6-.3v-2.6l.3-19.8v-3.4l-3.4.4c-19.5 2.3-29.5 3.6-47.7 6.5l.1-4.6.6-38.8c15.6-1.6 24.1-2.3 40.6-3.6l2.7-.2v-2.7l.1-9 .1-10.6v-3.2l-3.2.2c-16.3 1-24.8 1.6-40 2.7l.6-40c18.2-.4 28.1-.6 47.2-1l2.9-.1v-2.9l.1-9.9.1-9.9z"/><path d="m2148.5 1490.3v-.2c13.9-53.6 26.7-102.1 39-148.2l.3-1.1h32.5l.3 1.1c11.3 44.9 23.2 91 36.4 140.8l.5 1.8h-1.9c-11.6.3-17.2.5-28.8 1.1l-1.3.1-.3-1.3c-2.2-10.2-3.3-15.5-5.4-25.4-13.4.6-20.5 1-33.9 2-2.3 10.4-3.5 16-5.9 26.9l-.2 1.1-1.1.1c-11.5 1.1-17.1 1.7-28.6 3.1l-1.7.2zm55-107.7c-4.8 21.1-7.7 33.9-12.8 56.7 9.5-.6 15-.8 24.6-1.2-4.9-22.5-7.5-34.9-11.8-55.5z"/><path d="m2219.1 1342.4c11.8 47 24 93.9 36.4 140.8-11.6.3-17.3.5-28.9 1.1-2.3-10.6-3.4-16-5.7-26.6-14.5.7-21.8 1.1-36.3 2.2-2.4 11.2-3.7 16.8-6.1 28-11.5 1.1-17.2 1.7-28.6 3.1 0-.2 0-.2 0-.4 12.8-49.4 25.8-98.8 39-148.1 12.2-.1 18.2-.1 30.2-.1m-30.3 98.6c11.3-.7 17-1 28.3-1.4-5.5-25.4-8.2-38.2-13.5-64-5.9 25.9-8.9 39-14.8 65.4m32.7-101.6h-2.3-30.2-2.3l-.6 2.2c-12.3 46-25.1 94.5-39 148.2l-.1.4v.4.1.3l-.1 3.4 3.4-.4c11.5-1.4 17.1-2 28.6-3.1l2.2-.2.5-2.1c2.3-10.5 3.5-16.1 5.6-25.8 12.2-.9 19.3-1.3 31.5-1.9 1.9 9.1 3 14.4 5.1 24.2l.5 2.5 2.6-.1c11.6-.6 17.2-.8 28.8-1.1l3.8-.1-1-3.7c-13.2-49.8-25.1-95.8-36.4-140.8zm-28.9 98.3c4.3-19.3 7.1-31.6 10.9-48.1 3.4 16.2 5.9 28 10 47-8 .4-13.2.7-20.9 1.1z"/><path d="m2350.1 1486.3c-.9 0-1.8 0-2.7-.1-23.5-1.4-35-1.8-58.5-1.9-12.6-.1-19-4.9-19-14.3v-34.9h1.5c4.8 0 8.6-.1 12.3-.1 4.9 0 9.6 0 16.8.1h1.5l.1 28.6c12.8.2 19.8.4 32.5.9l-.2-25.4c-22.3-16.1-34.3-24.3-55.7-39.1l-1.7-1.1c-4.6-3.2-6.9-7.4-6.9-12.4v-31.2c0-11.9 10.2-14.4 18.8-14.4h57.7c8.6 0 18.9 2.5 19 14.5l.3 33.6h-1.5c-11.6-.3-17.3-.4-28.8-.6h-1.5l-.2-26.7c-12.6-.1-19.4-.1-32.1-.1v23.1c23.3 16.1 34.8 24.1 57.5 40.7 4.6 3.4 7 7.8 7 13.1l.3 34.2c0 4-1.1 7.1-3.3 9.4-2.8 2.8-7.1 4.1-13.2 4.1z"/><path d="m2288.8 1342.5h57.7c11.6 0 17.4 4.3 17.5 13 .1 12.8.2 19.2.3 32.1-11.5-.3-17.3-.4-28.8-.6-.1-10.7-.1-16-.2-26.7-14-.1-21.1-.1-35.1-.1 0 10.2 0 15.2.1 25.4 23.1 16 34.8 24 58.1 41.1 4.2 3.1 6.4 7.1 6.4 11.9.1 13.7.2 20.5.3 34.2.1 8.1-4.9 12-14.9 12-.8 0-1.7 0-2.6-.1-23.4-1.4-35.2-1.8-58.6-1.9-11.7-.1-17.6-4.2-17.5-12.8 0-13.4 0-20.1 0-33.5 4.8 0 8.6-.1 12.2-.1 5.1 0 9.9 0 16.7.1 0 11.4 0 17.2.1 28.6 14.2.2 21.3.4 35.5 1-.1-11.1-.1-16.7-.2-27.8-23.3-16.8-34.9-24.8-58.1-40.7-4.2-2.9-6.3-6.6-6.3-11.2 0-12.5 0-18.7 0-31.2.2-8.4 5.9-12.7 17.4-12.7m0-3v3-3c-16.8 0-20.3 8.7-20.3 15.9v25.7 5.5c0 5.6 2.5 10.2 7.6 13.7l1.7 1.2c21.3 14.6 33.1 22.8 55.1 38.6l.1 12.4.1 10.7c-11.3-.5-18.1-.7-29.5-.8v-17.5-8.2-3h-3c-7.2-.1-11.9-.1-16.8-.1-3.5 0-7.1 0-12.3.1h-3v3 33.5c0 7.1 3.5 15.7 20.5 15.8 23.5.1 35 .5 58.5 1.9 1 .1 1.9.1 2.8.1 6.5 0 11.2-1.5 14.2-4.6 2.5-2.5 3.8-6.1 3.7-10.4l-.2-20.1-.1-14.1c-.1-5.8-2.6-10.6-7.6-14.3-22.5-16.5-33.9-24.5-56.8-40.3v-20.8c11.2 0 17.9.1 29.1.1l.1 23.7v2.9h2.9c11.6.2 17.2.3 28.8.6l3.1.1v-3.1l-.1-16.5-.1-15.5c-.1-7.3-3.7-16-20.5-16z"/><path d="m2468.3 1500.2c-32.1-5.5-47.8-7.6-80.1-10.8l-1.3-.1-1.6-148.2h81.8l.4 23.7h-1.6c-19.7-.5-29.6-.6-48.6-1l.5 40.4c16.5.9 25 1.4 41.9 2.6l1.4.1.3 23.1-1.7-.2c-16.8-1.5-25.3-2.2-41.7-3.4l.6 43.7c19.8 2.1 29.8 3.4 49.9 6.4l1.3.2.4 23.7z"/><path d="m2386.7 1342.6h78.8c.1 8.3.2 12.4.3 20.6-20.1-.5-30.1-.7-50.2-1 .2 17.4.3 26 .6 43.4 17.3.9 26 1.4 43.3 2.7.1 8 .2 12.1.3 20.1-17.3-1.6-26-2.3-43.3-3.5.2 18.6.4 28 .6 46.6 20.5 2.2 30.8 3.5 51.2 6.6.1 8.3.2 12.4.3 20.7-32-5.5-48-7.6-80.3-10.8-.5-48.5-1.1-97-1.6-145.4m-3-3v3l1.6 145.4v2.7l2.7.3c32.3 3.1 48 5.2 80 10.7l3.6.6-.1-3.6-.3-16.7-.1-4v-2.5l-2.5-.4c-19.7-2.9-29.7-4.2-48.7-6.3l-.3-25.1-.2-15.6c15.3 1.1 23.8 1.8 40 3.2l3.3.3-.1-3.3-.2-10-.2-10.1v-2.8l-2.7-.2c-16.4-1.2-24.9-1.7-40.5-2.5l-.4-33.1-.1-4.4c18.1.3 28 .5 47 .9l3.1.1v-3.1l-.1-3.6-.3-17v-3h-3c-31.5 0-47.3 0-78.8 0z"/><path d="m2563 1520.8c-29.9-7.9-44.6-11.3-75-17.1l-1.2-.2-2.5-162.4h31.7l2.1 143.7c18 3.4 27.1 5.3 45.3 9.5l1.2.3.3 26.8z"/><path d="m2485.8 1342.6h28.7c.7 47.8 1.4 95.6 2.1 143.4 18.6 3.5 27.9 5.5 46.5 9.7.1 9.4.2 14.2.3 23.6-29.9-7.9-44.9-11.3-75.1-17.1-.9-53.2-1.7-106.4-2.5-159.6m-3.1-3v3l.6 40.9 1.8 118.8v2.4l2.4.5c30.3 5.8 45 9.1 74.9 17l3.8 1v-3.9l-.2-14-.1-9.7v-2.4l-2.3-.5c-17.8-4.1-27-6-44.2-9.3l-2.1-141v-3h-3-28.7z"/><path d="m2660.3 1550.3c-2.2 0-4.8-.5-7.7-1.6-22.4-8-33.5-11.7-56.3-18.5-12-3.6-18.2-11.3-18.3-22.9l-.5-45 1.8.3c11.4 2.1 17 3.2 28.4 5.6l1.2.2.3 38.7c12.5 3.4 19.2 5.3 31.4 9l-.2-36.8c-22.9-28.4-34.3-40.8-56.8-63.5-4.5-4.6-6.7-10-6.8-16.2l-.5-40.3c-.1-5.9 1.4-10.4 4.5-13.4 3.1-3.2 7.9-4.8 14.1-4.8h57.7c12.4 0 18.9 7.1 18.9 20.6v35.2l22 16.2-22-2.5-1.7-.2c-2.8-.3-5.3-.6-7.6-.9l-4.1-.5c-5.1-.6-9.9-1.1-16.6-1.8l-1.3-.1-.2-37.8c-12.6-.5-19.4-.8-31.9-1.3l.3 32.1c22.3 22.8 33.7 35.5 56.7 64.5 4.3 5.4 6.5 11.9 6.5 19.4v50.3c-.1 10.6-3.9 16-11.3 16z"/><path d="m2594.9 1342.6h57.7c11.6 0 17.4 6.4 17.4 19.1v35.9l18.1 13.3-18.1-2.1c-2.8-.3-5.3-.6-7.6-.9l-4.1-.5c-5.1-.6-9.9-1.1-16.6-1.8-.1-15.1-.1-22.7-.2-37.9-14-.6-21-.9-34.9-1.4.1 13.7.2 20.6.3 34.3 23 23.6 34.5 36.3 57.1 64.8 4.1 5.1 6.1 11.3 6.1 18.4v50.3c0 9.7-3.2 14.5-9.7 14.5-2.1 0-4.5-.5-7.2-1.5-22.4-8-33.7-11.7-56.4-18.5-11.3-3.4-17.1-10.5-17.2-21.5-.2-17.3-.3-25.9-.5-43.2 11.4 2.1 17 3.3 28.4 5.6.1 15.5.2 23.2.3 38.6 13.8 3.7 20.7 5.7 34.4 9.8-.1-15.8-.1-23.6-.2-39.4-22.7-28.1-34.2-40.7-57.2-64-4.2-4.3-6.3-9.3-6.4-15.2-.2-16.1-.3-24.2-.5-40.3-.2-10.8 5.5-16.4 17-16.4m0-3c-6.7 0-11.8 1.8-15.2 5.2-3.3 3.4-5 8.2-4.9 14.5l.2 13.2.3 27.1c.1 6.6 2.5 12.4 7.2 17.2 22.3 22.6 33.7 35 56.4 63l.1 15.5.1 18.8c-10.6-3.2-17.2-5.1-28.4-8.1l-.1-16.4-.2-19.9v-2.4l-2.4-.5c-11.4-2.4-17-3.5-28.4-5.6l-3.6-.7v3.7l.3 27.7.2 15.5c.1 12.4 6.7 20.5 19.4 24.3 22.8 6.8 33.8 10.4 56.3 18.5 3.1 1.1 5.8 1.6 8.2 1.6 5.8 0 12.7-3 12.7-17.5v-50.3c0-7.8-2.3-14.7-6.8-20.3-22.9-28.9-34.4-41.5-56.4-64.1l-.3-29.9c11.1.4 17.8.7 28.9 1.2l.1 35v2.7l2.7.3c7.1.8 11.8 1.3 16.6 1.8l4.1.5c2.3.3 4.8.5 7.6.9l3.3.4 14.7 1.7 11.2 1.3-9.1-6.7-16.8-12.4v-34.4c0-18.3-11.1-22.1-20.4-22.1z"/><path d="m2209.1 2864.1c0 3-1.4 4.5-4.1 4.5h-13.5c-2.7 0-4-1.5-4-4.5v-11.7h6.7v10h8.2v-9.7l-13.4-14c-1-1-1.5-2.3-1.5-3.9v-11c0-3 1.3-4.5 4-4.5h13.5c2.7 0 4.1 1.5 4.1 4.5v11h-6.7v-9.3h-8.2v8.9l13.4 13.9c1 1 1.5 2.3 1.5 4z"/><path d="m2237.4 2825.8h-7.4v42.8h-6.7v-42.8h-7.4v-6.5h21.4v6.5z"/><path d="m2267.2 2868.6h-7l-7.4-22.9v-4.4h6.6v-15.6h-8.4v42.9h-6.7v-49.3h17.8c2.7 0 4 1.5 4 4.5v17.9c0 2.1-.6 3.4-1.9 4-.7.3-2.1.5-4.4.5z"/><path d="m2293.4 2868.6h-18.6v-49.3h18.4v6.5h-11.7v14.4h10.1v6.4h-10.1v15.5h11.9z"/><path d="m2324.2 2868.6h-6.6l-1.3-9.4h-8.4l-1.3 9.4h-6.6v-.1l8.7-49.2h7zm-8.9-15.7-3.3-22.2-3.3 22.2z"/><path d="m2358.5 2868.6h-6.4v-24.3c0-1.3.1-3.1.4-5.4l-5.8 25.2h-3.4l-5.8-25.2c.3 2.3.4 4.1.4 5.4v24.3h-6.4v-49.3h6.3l7 27.2c.1.3.1 1 .2 2.2 0-.5.1-1.3.2-2.2l7-27.2h6.3z"/><path d="m1921 3090.4c-8.1-59.2-16.5-121.1-25.6-189.2l-22.6-13.8 36.2.1h16.6l.2 1.3c4.6 38.2 9.2 76 13.6 112.4 5.4-37.5 11-75.3 16.8-112.5l.2-1.3h26.1l.2 1.3c4.9 34.7 9.9 69.2 14.8 102.6 5.1-34.1 10.3-68.6 15.7-102.6l.2-1.3h32.1l-.3 1.8c-10.1 55.3-20.1 112.3-30.4 174l-.2 1-.9.2c-11.2 2.8-16.6 4.3-27.7 7.4l-1.6.5-.3-1.7c-6.1-38-9.2-57.7-15.4-97.3-5.9 35.7-11.7 72-17.2 107.9l-.1.9-.9.3c-11.1 3.5-16.5 5.3-27.5 9.2l-1.7.6z"/><path d="m2043.8 2888.9c-10.6 57.9-20.7 116-30.4 174-11.1 2.8-16.7 4.3-27.8 7.4-6.3-39.2-9.5-59.3-15.9-100.6-.1-3.8-.4-9.4-.8-16.9 0 3.8-.4 9.5-1.1 17.2-6.2 37-12.1 74-17.7 111-11 3.5-16.5 5.4-27.5 9.2-8.7-63.3-17.2-126.6-25.7-189.9l-18.6-11.4 30.9.1h15.3c4.6 38.7 9.3 77.4 14.1 116.1.2 4 .5 9.9.9 17.7.1-4 .5-10 1.2-18.1 5.5-38.6 11.3-77.2 17.3-115.7h23.5c5 35.3 10.1 70.6 15.2 105.8.2 3.6.5 9 .9 16.1.1-3.7.5-9.1 1.2-16.4 5.2-35.2 10.6-70.3 16.1-105.5 11.4-.1 17.2-.1 28.9-.1m-176.3-3 9.1 5.6 17.4 10.6c9 67.7 17.4 129.4 25.5 188.5l.5 3.6 3.5-1.2c11-3.8 16.4-5.6 27.4-9.1l1.8-.6.3-1.8c5-32.8 10.3-66 15.7-98.7 5.2 33.7 8.3 53.1 13.9 88.1l.5 3.3 3.2-.9c11.1-3.1 16.5-4.6 27.7-7.4l1.9-.5.3-1.9c10.3-61.8 20.3-118.7 30.4-174l.6-3.5h-3.6-2.2-26.9-2.6l-.4 2.5c-4.8 30.8-9.6 61.8-14.2 92.6-4.4-30.3-8.9-61.3-13.3-92.5l-.4-2.6h-2.6-23.5-2.6l-.4 2.5c-5.2 33.5-10.3 67.5-15.2 101.3-4-32.8-8.1-66.8-12.3-101.2l-.3-2.6h-2.7-15.3l-30.9-.1z"/><path d="m2058.3 2887.4h81.8l-.3 22.8h-1.5c-19.7.4-29.5.6-48.7 1l-.7 43.1c16.3-1.3 24.8-1.8 41.6-2.9l1.6-.1-.3 22.6-1.4.1c-17 1.3-25.5 2.1-41.9 3.8l-.7 46.5c19.3-3 29.4-4.4 49.4-6.7l1.7-.2-.3 22.8-1.3.2c-32.3 4.3-47.9 7-79.8 13.7l-1.8.4z"/><path d="m2138.6 2888.9c-.1 7.9-.2 11.9-.3 19.8-20.1.4-30.1.6-50.1 1.1-.3 18.5-.4 27.7-.7 46.1 17.3-1.3 25.9-1.9 43.2-3-.1 7.8-.2 11.8-.3 19.6-17.3 1.4-26 2.1-43.3 3.9-.3 19.8-.5 29.7-.8 49.6 20.4-3.2 30.6-4.6 51.1-7-.1 7.9-.2 11.9-.3 19.8-32.1 4.3-48.1 7-79.9 13.7.8-54.5 1.7-109.1 2.5-163.6zm3-3h-3c-31.5 0-47.3 0-78.8 0h-3v3l-1.2 81.8-1.2 81.8-.1 3.8 3.7-.8c31.8-6.7 47.5-9.4 79.7-13.7l2.6-.3v-2.6l.3-19.8v-3.4l-3.4.4c-19.4 2.3-29.5 3.6-47.7 6.5l.1-4.6.6-38.8c15.6-1.6 24.1-2.3 40.6-3.6l2.7-.2v-2.7l.1-8.9.2-10.7v-3.2l-3.2.2c-16.3 1-24.8 1.6-40 2.7l.6-40c18.2-.4 28.1-.6 47.2-1l2.9-.1v-2.9l.1-10 .1-9.9z"/><path d="m2148.5 3036.6v-.2c13.9-53.6 26.7-102.1 39-148.2l.3-1.1h32.5l.3 1.1c11.3 44.9 23.2 91 36.4 140.8l.5 1.8h-1.9c-11.6.3-17.3.5-28.8 1.1l-1.3.1-.3-1.3c-2.2-10.2-3.3-15.5-5.4-25.4-13.4.6-20.5 1-33.9 2-2.3 10.4-3.5 16-5.9 26.9l-.2 1.1-1.1.1c-11.5 1.1-17.1 1.7-28.6 3.1l-1.7.2zm55-107.7c-4.8 21.1-7.7 33.9-12.8 56.7 9.5-.6 15-.8 24.6-1.2-4.9-22.5-7.5-34.9-11.8-55.5z"/><path d="m2219.1 2888.7c11.8 47 24 93.9 36.4 140.8-11.6.3-17.3.5-28.9 1.1-2.3-10.6-3.4-16-5.7-26.6-14.5.7-21.8 1.1-36.3 2.2-2.4 11.2-3.7 16.8-6.1 28-11.5 1.1-17.2 1.7-28.6 3.1 0-.2 0-.2 0-.4 12.8-49.4 25.8-98.8 39-148.1 12.2-.1 18.2-.1 30.2-.1m-30.3 98.6c11.3-.7 17-1 28.3-1.4-5.5-25.4-8.2-38.2-13.5-64-5.9 25.9-8.9 39-14.8 65.4m32.7-101.6h-2.3-30.2-2.3l-.6 2.2c-12.3 46-25.1 94.5-39 148.2l-.1.4v.4.1.3l-.1 3.4 3.4-.4c11.5-1.4 17.1-2 28.6-3.1l2.2-.2.5-2.1c2.3-10.5 3.5-16.1 5.6-25.8 12.2-.9 19.3-1.3 31.5-1.9 1.9 9.1 3 14.4 5.1 24.2l.5 2.5 2.6-.1c11.6-.6 17.2-.8 28.8-1.1l3.8-.1-1-3.7c-13.2-49.8-25.1-95.8-36.4-140.8zm-28.9 98.3c4.3-19.3 7.1-31.6 10.9-48.1 3.4 16.2 5.9 28.1 10 47-8 .4-13.2.7-20.9 1.1z"/><path d="m2350.1 3032.6c-.9 0-1.8 0-2.7-.1-23.5-1.4-35-1.8-58.5-1.9-12.6-.1-19-4.9-19-14.3v-34.9h1.5c4.8 0 8.6-.1 12.3-.1 4.9 0 9.6 0 16.8.1h1.5l.1 28.6c12.8.2 19.7.4 32.5.9l-.2-25.4c-22.4-16.1-34.3-24.3-55.8-39.1l-1.6-1.1c-4.6-3.2-6.9-7.4-6.9-12.4v-31.2c0-11.9 10.2-14.4 18.8-14.4h57.7c8.6 0 18.9 2.5 19 14.5l.3 33.6h-1.5c-11.6-.3-17.3-.4-28.8-.6h-1.5l-.2-26.7c-12.6-.1-19.4-.1-32.1-.1v23.1c23.3 16.1 34.8 24.1 57.5 40.7 4.6 3.4 7 7.8 7 13.1l.3 34.2c0 4-1.1 7.1-3.3 9.4-2.8 2.8-7.1 4.1-13.2 4.1z"/><path d="m2288.8 2888.9h57.7c11.6 0 17.4 4.3 17.5 13 .1 12.8.2 19.2.3 32.1-11.5-.3-17.3-.4-28.8-.6-.1-10.7-.1-16-.2-26.7-14-.1-21.1-.1-35.1-.1 0 10.2 0 15.2.1 25.4 23.1 16 34.8 24 58.1 41.1 4.2 3.1 6.4 7.1 6.4 11.9.1 13.7.2 20.5.3 34.2.1 8.1-4.9 12-14.9 12-.8 0-1.7 0-2.6-.1-23.4-1.4-35.2-1.8-58.6-1.9-11.7-.1-17.6-4.2-17.5-12.8 0-13.4 0-20.1 0-33.5 4.8 0 8.6-.1 12.3-.1 5.1 0 9.9 0 16.7.1 0 11.5 0 17.2.1 28.6 14.2.2 21.3.4 35.5 1-.1-11.1-.1-16.7-.2-27.8-23.3-16.8-34.9-24.8-58.1-40.7-4.2-2.9-6.3-6.6-6.3-11.2 0-12.5 0-18.7 0-31.2.1-8.4 5.8-12.7 17.3-12.7m0-3c-16.8 0-20.3 8.7-20.3 15.9v25.7 5.5c0 5.6 2.5 10.2 7.6 13.7l1.7 1.2c21.3 14.6 33.1 22.8 55.1 38.6l.1 12.3.1 10.8c-11.3-.5-18.1-.7-29.5-.8v-17.5-8.2-3h-3c-7.2-.1-11.9-.1-16.8-.1-3.5 0-7.1 0-12.3.1h-3v3 33.5c0 7.1 3.5 15.7 20.5 15.8 23.5.1 35 .5 58.5 1.9 1 .1 1.9.1 2.8.1 6.5 0 11.2-1.5 14.2-4.6 2.5-2.5 3.8-6.1 3.7-10.4l-.2-20.1-.1-14.1c-.1-5.8-2.6-10.6-7.6-14.3-22.5-16.5-33.9-24.5-56.8-40.3v-20.8c11.2 0 17.9.1 29.1.1l.1 23.7v2.9h2.9c11.6.2 17.2.3 28.8.6l3.1.1v-3.1l-.1-16.5-.1-15.6c-.1-7.3-3.7-16-20.5-16z"/><path d="m2468.3 3046.5c-32-5.5-47.8-7.6-80.1-10.8l-1.3-.1-1.6-148.2h81.8l.4 23.7h-1.6c-19.6-.5-29.4-.6-48.6-1l.5 40.4c16.5.9 25 1.4 41.9 2.6l1.4.1.3 23.1-1.7-.2c-16.8-1.5-25.3-2.2-41.7-3.4l.6 43.7c19.8 2.1 29.8 3.4 49.9 6.4l1.3.2.4 23.7z"/><path d="m2386.7 2888.9h78.8c.1 8.3.2 12.4.3 20.6-20.1-.5-30.1-.7-50.2-1 .2 17.4.3 26 .6 43.4 17.3.9 26 1.4 43.3 2.7.1 8 .2 12.1.3 20.1-17.3-1.6-26-2.3-43.3-3.5.2 18.6.4 28 .6 46.6 20.5 2.2 30.8 3.5 51.2 6.6.1 8.3.2 12.4.3 20.7-32-5.5-48-7.6-80.3-10.8-.5-48.5-1.1-97-1.6-145.4m-3-3v3l1.6 145.4v2.7l2.7.3c32.3 3.1 48 5.2 80 10.7l3.6.6-.1-3.6-.3-16.7-.1-4v-2.5l-2.5-.4c-19.7-2.9-29.7-4.2-48.7-6.3l-.3-25.1-.2-15.6c15.3 1.1 23.8 1.8 40 3.2l3.3.3-.1-3.3-.1-10-.2-10.1v-2.8l-2.7-.2c-16.4-1.2-24.9-1.7-40.5-2.5l-.4-32.9-.1-4.6c18.1.3 28 .5 47 .9l3.1.1v-3.1l-.1-3.5-.3-17.1v-3h-3c-31.5 0-47.3 0-78.8 0z"/><path d="m2563 3067.1c-29.9-7.9-44.6-11.3-75-17.1l-1.2-.2-2.5-162.4h31.7l2.1 143.7c18 3.4 27.1 5.3 45.3 9.5l1.2.3.3 26.8z"/><path d="m2485.8 2888.9h28.7c.7 47.8 1.4 95.6 2.1 143.4 18.6 3.5 27.9 5.5 46.5 9.7.1 9.4.2 14.2.3 23.6-29.9-7.9-44.9-11.3-75.1-17.1-.9-53.2-1.7-106.4-2.5-159.6m-3.1-3v3l.6 40.8 1.8 118.9v2.4l2.4.5c30.3 5.8 45 9.1 74.9 17l3.8 1v-3.9l-.2-14-.1-9.6v-2.4l-2.3-.5c-17.8-4.1-27-6-44.2-9.3l-2.1-141v-3h-3-28.7z"/><path d="m2660.3 3096.6c-2.2 0-4.8-.5-7.7-1.6-22.4-8-33.5-11.7-56.3-18.5-12-3.6-18.2-11.3-18.3-22.9l-.5-45 1.8.3c11.4 2.2 17 3.3 28.4 5.6l1.2.2.3 38.7c12.5 3.4 19.2 5.3 31.4 9l-.2-36.8c-22.9-28.4-34.3-40.8-56.8-63.5-4.5-4.6-6.7-10-6.8-16.2l-.5-40.3c-.1-5.8 1.4-10.4 4.5-13.4 3.1-3.2 7.9-4.8 14.1-4.8h57.7c12.4 0 18.9 7.1 18.9 20.6v35.2l22 16.2-22-2.5-1.7-.2c-2.8-.3-5.3-.6-7.6-.9l-4.1-.5c-5.1-.6-9.9-1.1-16.6-1.8l-1.3-.1-.2-37.8c-12.4-.5-19.2-.8-31.9-1.3l.3 32.1c22.3 22.8 33.7 35.5 56.7 64.5 4.3 5.4 6.5 11.9 6.5 19.4v50.3c-.1 10.6-3.9 16-11.3 16z"/><path d="m2594.9 2888.9h57.7c11.6 0 17.4 6.4 17.4 19.1v35.9l18.1 13.3-18.1-2.1c-2.8-.3-5.3-.6-7.6-.9l-4.1-.5c-5.1-.6-9.9-1.1-16.6-1.8-.1-15.1-.1-22.7-.2-37.9-14-.6-21-.9-34.9-1.4.1 13.7.2 20.6.3 34.3 23 23.6 34.5 36.3 57.1 64.8 4.1 5.1 6.1 11.3 6.1 18.4v50.3c0 9.7-3.2 14.5-9.7 14.5-2.1 0-4.5-.5-7.2-1.5-22.4-8-33.7-11.7-56.4-18.5-11.3-3.4-17.1-10.5-17.2-21.5-.2-17.3-.3-25.9-.5-43.2 11.4 2.1 17 3.3 28.4 5.6.1 15.5.2 23.2.3 38.6 13.8 3.7 20.7 5.7 34.4 9.8-.1-15.8-.1-23.6-.2-39.4-22.7-28.1-34.2-40.7-57.2-64-4.2-4.3-6.3-9.3-6.4-15.2-.2-16.1-.3-24.2-.5-40.3-.2-10.8 5.5-16.4 17-16.4m0-3c-6.7 0-11.8 1.8-15.2 5.2-3.3 3.4-5 8.2-4.9 14.5l.1 13.2.3 27.1c.1 6.6 2.5 12.4 7.2 17.2 22.3 22.6 33.7 35 56.4 63l.1 15.5.1 18.8c-10.6-3.2-17.2-5.1-28.4-8.1l-.1-16.4-.2-19.9v-2.4l-2.4-.5c-11.4-2.4-17-3.5-28.4-5.6l-3.6-.7v3.7l.3 27.6.2 15.6c.1 12.4 6.7 20.5 19.4 24.3 22.8 6.8 33.8 10.4 56.3 18.5 3.1 1.1 5.8 1.6 8.2 1.6 5.8 0 12.7-3 12.7-17.5v-50.3c0-7.8-2.3-14.7-6.8-20.3-22.9-28.9-34.4-41.5-56.4-64.1l-.3-29.9c11.1.4 17.8.7 28.9 1.2l.1 35v2.7l2.7.3c7.1.8 11.8 1.3 16.6 1.8l4.1.5c2.3.3 4.8.5 7.6.9l3.3.4 14.7 1.7 11.2 1.3-9.1-6.7-16.8-12.4v-34.4c0-18.3-11.1-22.1-20.4-22.1z"/></g></svg>